OxygenSans-Bold-kernagic.ufo
<glyph name="exclam" format="1">
  <advance width="738"/>
  <unicode hex="0021"/>
  <outline>
    <contour>
      <point x="362" y="-10" type="curve" smooth="yes"/>
      <point x="448" y="-10"/>
      <point x="501" y="58"/>
      <point x="501" y="133" type="curve" smooth="yes"/>
      <point x="501" y="208"/>
      <point x="448" y="275"/>
      <point x="362" y="275" type="curve" smooth="yes"/>
      <point x="276" y="275"/>
      <point x="222" y="208"/>
      <point x="222" y="133" type="curve" smooth="yes"/>
      <point x="222" y="59"/>
      <point x="276" y="-10"/>
    </contour>
    <contour>
      <point x="317" y="449" type="line"/>
      <point x="415" y="449" type="line"/>
      <point x="473" y="1327" type="line"/>
      <point x="473" y="1513" type="line"/>
      <point x="252" y="1513" type="line"/>
      <point x="252" y="1327" type="line"/>
    </contour>
  </outline>
</glyph>
<glyph name="percent" format="1">
  <advance width="1789"/>
  <unicode hex="0025"/>
  <outline>
    <contour>
      <point x="361" y="0" type="line"/>
      <point x="1204" y="1493" type="line"/>
      <point x="1387" y="1493" type="line"/>
      <point x="553" y="0" type="line"/>
    </contour>
    <contour>
      <point x="383" y="717" type="curve" smooth="yes"/>
      <point x="144" y="717"/>
      <point x="30" y="892"/>
      <point x="30" y="1116" type="curve" smooth="yes"/>
      <point x="30" y="1341"/>
      <point x="148" y="1513"/>
      <point x="383" y="1513" type="curve" smooth="yes"/>
      <point x="623" y="1513"/>
      <point x="747" y="1344"/>
      <point x="747" y="1116" type="curve" smooth="yes"/>
      <point x="747" y="892"/>
      <point x="620" y="717"/>
    </contour>
    <contour>
      <point x="386" y="864" type="curve" smooth="yes"/>
      <point x="520" y="864"/>
      <point x="574" y="976"/>
      <point x="574" y="1119" type="curve" smooth="yes"/>
      <point x="574" y="1266"/>
      <point x="519" y="1370"/>
      <point x="386" y="1370" type="curve" smooth="yes"/>
      <point x="251" y="1370"/>
      <point x="195" y="1261"/>
      <point x="195" y="1119" type="curve" smooth="yes"/>
      <point x="195" y="973"/>
      <point x="251" y="864"/>
    </contour>
    <contour>
      <point x="1371" y="127" type="curve" smooth="yes"/>
      <point x="1505" y="127"/>
      <point x="1559" y="240"/>
      <point x="1559" y="382" type="curve" smooth="yes"/>
      <point x="1559" y="529"/>
      <point x="1504" y="633"/>
      <point x="1371" y="633" type="curve" smooth="yes"/>
      <point x="1236" y="633"/>
      <point x="1180" y="524"/>
      <point x="1180" y="382" type="curve" smooth="yes"/>
      <point x="1180" y="237"/>
      <point x="1236" y="127"/>
    </contour>
    <contour>
      <point x="1368" y="-20" type="curve" smooth="yes"/>
      <point x="1129" y="-20"/>
      <point x="1006" y="155"/>
      <point x="1006" y="380" type="curve" smooth="yes"/>
      <point x="1006" y="604"/>
      <point x="1133" y="776"/>
      <point x="1368" y="776" type="curve" smooth="yes"/>
      <point x="1608" y="776"/>
      <point x="1732" y="608"/>
      <point x="1732" y="380" type="curve" smooth="yes"/>
      <point x="1732" y="155"/>
      <point x="1605" y="-20"/>
    </contour>
  </outline>
</glyph>
<glyph name="two" format="1">
  <advance width="1192"/>
  <unicode hex="0032"/>
  <outline>
    <contour>
      <point x="156" y="0" type="line"/>
      <point x="1014" y="0" type="line"/>
      <point x="1034" y="192" type="line"/>
      <point x="271" y="192" type="line"/>
      <point x="315" y="113" type="line"/>
      <point x="755" y="526" type="line" smooth="yes"/>
      <point x="974" y="731"/>
      <point x="1054" y="880"/>
      <point x="1034" y="1071" type="curve" smooth="yes"/>
      <point x="1003" y="1363"/>
      <point x="795" y="1480"/>
      <point x="565" y="1480" type="curve" smooth="yes"/>
      <point x="323" y="1480"/>
      <point x="173" y="1362"/>
      <point x="94" y="1258" type="curve"/>
      <point x="221" y="1124" type="line"/>
      <point x="242" y="1124" type="line"/>
      <point x="316" y="1220"/>
      <point x="429" y="1282"/>
      <point x="547" y="1282" type="curve" smooth="yes"/>
      <point x="676" y="1282"/>
      <point x="787" y="1211"/>
      <point x="797" y="1051" type="curve" smooth="yes"/>
      <point x="806" y="925"/>
      <point x="734" y="816"/>
      <point x="611" y="692" type="curve" smooth="yes"/>
      <point x="119" y="198" type="line"/>
    </contour>
  </outline>
</glyph>
<glyph name="four" format="1">
  <advance width="1192"/>
  <unicode hex="0034"/>
  <outline>
    <contour>
      <point x="297" y="530" type="line"/>
      <point x="702" y="1188" type="line"/>
      <point x="702" y="530" type="line"/>
    </contour>
    <contour>
      <point x="702" y="0" type="line"/>
      <point x="926" y="0" type="line"/>
      <point x="926" y="350" type="line"/>
      <point x="1118" y="350" type="line"/>
      <point x="1149" y="533" type="line"/>
      <point x="926" y="533" type="line"/>
      <point x="926" y="1456" type="line"/>
      <point x="660" y="1456" type="line"/>
      <point x="67" y="531" type="line"/>
      <point x="67" y="350" type="line"/>
      <point x="702" y="350" type="line"/>
    </contour>
  </outline>
</glyph>
<glyph name="five" format="1">
  <advance width="1192"/>
  <unicode hex="0035"/>
  <outline>
    <contour>
      <point x="571" y="186" type="curve" smooth="yes"/>
      <point x="436" y="186"/>
      <point x="335" y="250"/>
      <point x="268" y="343" type="curve"/>
      <point x="252" y="343" type="line"/>
      <point x="120" y="204" type="line"/>
      <point x="190" y="79"/>
      <point x="347" y="-18"/>
      <point x="583" y="-18" type="curve"/>
      <point x="900" y="-18"/>
      <point x="1072" y="170"/>
      <point x="1072" y="473" type="curve" smooth="yes"/>
      <point x="1072" y="745"/>
      <point x="896" y="944"/>
      <point x="653" y="944" type="curve" smooth="yes"/>
      <point x="460" y="944"/>
      <point x="386" y="852"/>
      <point x="354" y="793" type="curve"/>
      <point x="371" y="787" type="line"/>
      <point x="427" y="1272" type="line"/>
      <point x="989" y="1272" type="line"/>
      <point x="1015" y="1456" type="line"/>
      <point x="241" y="1456" type="line"/>
      <point x="177" y="672" type="line"/>
      <point x="348" y="646" type="line"/>
      <point x="406" y="730"/>
      <point x="483" y="771"/>
      <point x="604" y="763" type="curve" smooth="yes"/>
      <point x="764" y="752"/>
      <point x="844" y="637"/>
      <point x="844" y="474" type="curve" smooth="yes"/>
      <point x="844" y="289"/>
      <point x="755" y="186"/>
    </contour>
  </outline>
</glyph>
<glyph name="semicolon" format="1">
  <advance width="738"/>
  <unicode hex="003B"/>
  <outline>
    <contour>
      <point x="378" y="809" type="curve" smooth="yes"/>
      <point x="461" y="809"/>
      <point x="514" y="875"/>
      <point x="514" y="948" type="curve" smooth="yes"/>
      <point x="514" y="1022"/>
      <point x="461" y="1089"/>
      <point x="378" y="1089" type="curve" smooth="yes"/>
      <point x="294" y="1089"/>
      <point x="240" y="1022"/>
      <point x="240" y="948" type="curve" smooth="yes"/>
      <point x="240" y="874"/>
      <point x="295" y="809"/>
    </contour>
    <contour>
      <point x="222" y="-306" type="line"/>
      <point x="359" y="-306" type="line"/>
      <point x="483" y="241" type="line"/>
      <point x="276" y="241" type="line"/>
    </contour>
  </outline>
</glyph>
<glyph name="B" format="1">
  <advance width="1334"/>
  <unicode hex="0042"/>
  <outline>
    <contour>
      <point x="152" y="15" type="line"/>
      <point x="983" y="-47"/>
      <point x="1219" y="68"/>
      <point x="1219" y="430" type="curve" smooth="yes"/>
      <point x="1219" y="653"/>
      <point x="1069" y="767"/>
      <point x="837" y="801" type="curve"/>
      <point x="837" y="743" type="line"/>
      <point x="1088" y="797"/>
      <point x="1174" y="918"/>
      <point x="1174" y="1085" type="curve" smooth="yes"/>
      <point x="1174" y="1412"/>
      <point x="933" y="1505"/>
      <point x="152" y="1436" type="curve"/>
    </contour>
    <contour>
      <point x="333" y="195" type="curve"/>
      <point x="392" y="134" type="line"/>
      <point x="392" y="745" type="line"/>
      <point x="333" y="679" type="line"/>
      <point x="635" y="679" type="line" smooth="yes"/>
      <point x="871" y="679"/>
      <point x="981" y="621"/>
      <point x="981" y="440" type="curve" smooth="yes"/>
      <point x="981" y="242"/>
      <point x="871" y="155"/>
    </contour>
    <contour>
      <point x="332" y="849" type="line"/>
      <point x="392" y="796" type="line"/>
      <point x="392" y="1322" type="line"/>
      <point x="333" y="1258" type="line"/>
      <point x="789" y="1295"/>
      <point x="933" y="1254"/>
      <point x="933" y="1051" type="curve" smooth="yes"/>
      <point x="933" y="889"/>
      <point x="834" y="849"/>
      <point x="658" y="849" type="curve" smooth="yes"/>
    </contour>
    <contour>
      <point x="0" y="0" type="move" name="bot"/>
    </contour>
  </outline>
</glyph>
<glyph name="C" format="1">
  <advance width="1448"/>
  <unicode hex="0043"/>
  <outline>
    <contour>
      <point x="368" y="731" type="curve"/>
      <point x="114" y="731" type="line"/>
      <point x="114" y="246"/>
      <point x="365" y="-18"/>
      <point x="785" y="-18" type="curve" smooth="yes"/>
      <point x="1112" y="-18"/>
      <point x="1290" y="188"/>
      <point x="1335" y="384" type="curve"/>
      <point x="1166" y="459" type="line"/>
      <point x="1142" y="459" type="line"/>
      <point x="1109" y="329"/>
      <point x="1003" y="178"/>
      <point x="787" y="180" type="curve" smooth="yes"/>
      <point x="513" y="183"/>
      <point x="368" y="343"/>
    </contour>
    <contour>
      <point x="368" y="731" type="line"/>
      <point x="368" y="1119"/>
      <point x="513" y="1279"/>
      <point x="787" y="1282" type="curve" smooth="yes"/>
      <point x="1003" y="1284"/>
      <point x="1109" y="1133"/>
      <point x="1142" y="1003" type="curve"/>
      <point x="1166" y="1003" type="line"/>
      <point x="1335" y="1078" type="line"/>
      <point x="1290" y="1274"/>
      <point x="1112" y="1480"/>
      <point x="785" y="1480" type="curve" smooth="yes"/>
      <point x="365" y="1480"/>
      <point x="114" y="1216"/>
      <point x="114" y="731" type="curve"/>
    </contour>
    <contour>
      <point x="724.0" y="0" type="move" name="bot"/>
    </contour>
    <contour>
      <point x="724.0" y="1456" type="move" name="top"/>
    </contour>
  </outline>
</glyph>
<glyph name="F" format="1">
  <advance width="1192"/>
  <unicode hex="0046"/>
  <outline>
    <contour>
      <point x="165" y="0" type="line"/>
      <point x="405" y="0" type="line"/>
      <point x="405" y="713" type="line"/>
      <point x="318" y="629" type="line"/>
      <point x="1056" y="629" type="line"/>
      <point x="1056" y="817" type="line"/>
      <point x="313" y="817" type="line"/>
      <point x="405" y="747" type="line"/>
      <point x="405" y="1342" type="line"/>
      <point x="309" y="1259" type="line"/>
      <point x="1102" y="1259" type="line"/>
      <point x="1116" y="1456" type="line"/>
      <point x="165" y="1456" type="line"/>
    </contour>
  </outline>
</glyph>
<glyph name="G" format="1">
  <advance width="1448"/>
  <unicode hex="0047"/>
  <outline>
    <contour>
      <point x="786" y="-18" type="curve" smooth="yes"/>
      <point x="984" y="-18"/>
      <point x="1133" y="20"/>
      <point x="1287" y="85" type="curve"/>
      <point x="1287" y="798" type="line"/>
      <point x="750" y="798" type="line"/>
      <point x="741" y="615" type="line"/>
      <point x="1140" y="593" type="line"/>
      <point x="1067" y="662" type="line"/>
      <point x="1067" y="148" type="line"/>
      <point x="1149" y="251" type="line"/>
      <point x="1086" y="219"/>
      <point x="971" y="186"/>
      <point x="806" y="186" type="curve" smooth="yes"/>
      <point x="482" y="186"/>
      <point x="368" y="380"/>
      <point x="368" y="721" type="curve" smooth="yes"/>
      <point x="368" y="1059"/>
      <point x="519" y="1252"/>
      <point x="818" y="1252" type="curve" smooth="yes"/>
      <point x="990" y="1252"/>
      <point x="1096" y="1165"/>
      <point x="1154" y="1092" type="curve"/>
      <point x="1297" y="1236" type="line"/>
      <point x="1215" y="1358"/>
      <point x="1055" y="1456"/>
      <point x="804" y="1456" type="curve" smooth="yes"/>
      <point x="384" y="1456"/>
      <point x="114" y="1186"/>
      <point x="114" y="718" type="curve" smooth="yes"/>
      <point x="114" y="265"/>
      <point x="345" y="-18"/>
    </contour>
  </outline>
</glyph>
<glyph name="H" format="1">
  <advance width="1476"/>
  <unicode hex="0048"/>
  <outline>
    <contour>
      <point x="159" y="0" type="line"/>
      <point x="399" y="0" type="line"/>
      <point x="399" y="722" type="line"/>
      <point x="324" y="651" type="line"/>
      <point x="1134" y="651" type="line"/>
      <point x="1055" y="722" type="line"/>
      <point x="1055" y="0" type="line"/>
      <point x="1295" y="0" type="line"/>
      <point x="1295" y="1456" type="line"/>
      <point x="1055" y="1456" type="line"/>
      <point x="1055" y="772" type="line"/>
      <point x="1128" y="844" type="line"/>
      <point x="323" y="844" type="line"/>
      <point x="399" y="772" type="line"/>
      <point x="399" y="1456" type="line"/>
      <point x="159" y="1456" type="line"/>
    </contour>
  </outline>
</glyph>
<glyph name="J" format="1">
  <advance width="880"/>
  <unicode hex="004A"/>
  <outline>
    <contour>
      <point x="164" y="-209" type="line" smooth="yes"/>
      <point x="503" y="-175"/>
      <point x="661" y="-88"/>
      <point x="661" y="263" type="curve" smooth="yes"/>
      <point x="661" y="1456" type="line"/>
      <point x="421" y="1456" type="line"/>
      <point x="421" y="268" type="line" smooth="yes"/>
      <point x="421" y="65"/>
      <point x="347" y="15"/>
      <point x="155" y="-11" type="curve" smooth="yes"/>
      <point x="70" y="-23" type="line"/>
      <point x="92" y="-216" type="line"/>
    </contour>
    <contour>
      <point x="440.0" y="0" type="move" name="bot"/>
    </contour>
    <contour>
      <point x="440.0" y="1456" type="move" name="top"/>
    </contour>
  </outline>
</glyph>
<glyph name="K" format="1">
  <advance width="1363"/>
  <unicode hex="004B"/>
  <outline>
    <contour>
      <point x="159" y="0" type="line"/>
      <point x="399" y="0" type="line"/>
      <point x="399" y="613" type="line"/>
      <point x="346" y="482" type="line"/>
      <point x="579" y="731" type="line"/>
      <point x="479" y="731" type="line"/>
      <point x="1035" y="0" type="line"/>
      <point x="1323" y="0" type="line"/>
      <point x="658" y="872" type="line"/>
      <point x="658" y="740" type="line"/>
      <point x="1290" y="1456" type="line"/>
      <point x="1006" y="1456" type="line"/>
      <point x="338" y="700" type="line"/>
      <point x="399" y="690" type="line"/>
      <point x="399" y="1456" type="line"/>
      <point x="159" y="1456" type="line"/>
    </contour>
  </outline>
</glyph>
<glyph name="Q" format="1">
  <advance width="1533"/>
  <unicode hex="0051"/>
  <outline>
    <contour>
      <point x="1121" y="-508" type="line"/>
      <point x="1283" y="-398" type="line"/>
      <point x="1005" y="14" type="line"/>
      <point x="1286" y="100"/>
      <point x="1431" y="352"/>
      <point x="1431" y="724" type="curve" smooth="yes"/>
      <point x="1431" y="1199"/>
      <point x="1199" y="1480"/>
      <point x="772" y="1480" type="curve" smooth="yes"/>
      <point x="341" y="1480"/>
      <point x="108" y="1201"/>
      <point x="108" y="725" type="curve" smooth="yes"/>
      <point x="108" y="258"/>
      <point x="336" y="-18"/>
      <point x="772" y="-18" type="curve" smooth="yes"/>
      <point x="794" y="-18" type="line"/>
    </contour>
    <contour>
      <point x="771" y="186" type="curve" smooth="yes"/>
      <point x="479" y="186"/>
      <point x="362" y="398"/>
      <point x="362" y="724" type="curve" smooth="yes"/>
      <point x="362" y="1061"/>
      <point x="485" y="1276"/>
      <point x="772" y="1276" type="curve" smooth="yes"/>
      <point x="1060" y="1276"/>
      <point x="1177" y="1060"/>
      <point x="1177" y="724" type="curve" smooth="yes"/>
      <point x="1177" y="398"/>
      <point x="1063" y="186"/>
    </contour>
  </outline>
</glyph>
<glyph name="T" format="1">
  <advance width="1221"/>
  <unicode hex="0054"/>
  <outline>
    <contour>
      <point x="485" y="0" type="line"/>
      <point x="725" y="0" type="line"/>
      <point x="725" y="1357" type="line"/>
      <point x="663" y="1272" type="line"/>
      <point x="1167" y="1272" type="line"/>
      <point x="1167" y="1456" type="line"/>
      <point x="44" y="1456" type="line"/>
      <point x="44" y="1272" type="line"/>
      <point x="546" y="1272" type="line"/>
      <point x="485" y="1357" type="line"/>
    </contour>
    <contour>
      <point x="606" y="711" type="move" name="mid"/>
    </contour>
    <contour>
      <point x="610.5" y="0" type="move" name="bot"/>
    </contour>
    <contour>
      <point x="610.5" y="1456" type="move" name="top"/>
    </contour>
  </outline>
</glyph>
<glyph name="W" format="1">
  <advance width="1846"/>
  <unicode hex="0057"/>
  <outline>
    <contour>
      <point x="393" y="0" type="line"/>
      <point x="631" y="0" type="line"/>
      <point x="947" y="1177" type="line"/>
      <point x="898" y="1177" type="line"/>
      <point x="1185" y="0" type="line"/>
      <point x="1432" y="0" type="line"/>
      <point x="1830" y="1456" type="line"/>
      <point x="1584" y="1456" type="line"/>
      <point x="1283" y="261" type="line"/>
      <point x="1321" y="261" type="line"/>
      <point x="1037" y="1438" type="line"/>
      <point x="804" y="1438" type="line"/>
      <point x="499" y="261" type="line"/>
      <point x="540" y="261" type="line"/>
      <point x="256" y="1456" type="line"/>
      <point x="18" y="1456" type="line"/>
    </contour>
    <contour>
      <point x="923.0" y="0" type="move" name="bot"/>
    </contour>
    <contour>
      <point x="923.0" y="1456" type="move" name="top"/>
    </contour>
  </outline>
</glyph>
<glyph name="Z" format="1">
  <advance width="1221"/>
  <unicode hex="005A"/>
  <outline>
    <contour>
      <point x="89" y="0" type="line"/>
      <point x="1138" y="0" type="line"/>
      <point x="1118" y="184" type="line"/>
      <point x="274" y="184" type="line"/>
      <point x="308" y="105" type="line"/>
      <point x="1105" y="1285" type="line"/>
      <point x="1102" y="1456" type="line"/>
      <point x="109" y="1456" type="line"/>
      <point x="117" y="1272" type="line"/>
      <point x="914" y="1272" type="line"/>
      <point x="873" y="1342" type="line"/>
      <point x="89" y="164" type="line"/>
    </contour>
  </outline>
</glyph>
<glyph name="grave" format="1">
  <advance width="937"/>
  <unicode hex="0060"/>
  <outline>
    <contour>
      <point x="429" y="1276" type="line"/>
      <point x="570" y="1276" type="line"/>
      <point x="385" y="1687" type="line"/>
      <point x="120" y="1687" type="line"/>
    </contour>
    <contour>
      <point x="501" y="1080" type="move" name="_top"/>
    </contour>
    <contour>
      <point x="468.5" y="1082" type="move" name="_top"/>
    </contour>
  </outline>
</glyph>
<glyph name="a" format="1">
  <advance width="1107"/>
  <unicode hex="0061"/>
  <outline>
    <contour>
      <point x="799" y="343" type="line"/>
      <point x="755" y="250"/>
      <point x="645" y="147"/>
      <point x="465" y="147" type="curve" smooth="yes"/>
      <point x="368" y="147"/>
      <point x="305" y="199"/>
      <point x="306" y="309" type="curve" smooth="yes"/>
      <point x="307" y="429"/>
      <point x="396" y="474"/>
      <point x="586" y="474" type="curve" smooth="yes"/>
      <point x="634" y="474"/>
      <point x="741" y="470"/>
      <point x="789" y="469" type="curve"/>
      <point x="761" y="517" type="line"/>
      <point x="761" y="244" type="line"/>
    </contour>
    <contour>
      <point x="762" y="580" type="line"/>
      <point x="800" y="618" type="line"/>
      <point x="743" y="623"/>
      <point x="649" y="627"/>
      <point x="536" y="627" type="curve" smooth="yes"/>
      <point x="275" y="627"/>
      <point x="99" y="532"/>
      <point x="99" y="299" type="curve" smooth="yes"/>
      <point x="99" y="87"/>
      <point x="249" y="-12"/>
      <point x="430" y="-18" type="curve" smooth="yes"/>
      <point x="617" y="-24"/>
      <point x="744" y="68"/>
      <point x="808" y="189" type="curve"/>
      <point x="777" y="189" type="line"/>
      <point x="819" y="0" type="line"/>
      <point x="981" y="0" type="line"/>
      <point x="981" y="671" type="line" smooth="yes"/>
      <point x="981" y="978"/>
      <point x="802" y="1101"/>
      <point x="560" y="1101" type="curve" smooth="yes"/>
      <point x="347" y="1101"/>
      <point x="203" y="1033"/>
      <point x="107" y="906" type="curve"/>
      <point x="216" y="789" type="line"/>
      <point x="235" y="789" type="line"/>
      <point x="297" y="865"/>
      <point x="417" y="927"/>
      <point x="557" y="927" type="curve" smooth="yes"/>
      <point x="691" y="927"/>
      <point x="762" y="859"/>
      <point x="762" y="697" type="curve" smooth="yes"/>
    </contour>
    <contour>
      <point x="553.5" y="0" type="move" name="bot"/>
    </contour>
    <contour>
      <point x="553.5" y="1082" type="move" name="top"/>
    </contour>
    <contour>
      <point x="890" y="0" type="move" name="ogonek"/>
    </contour>
  </outline>
</glyph>
<glyph name="b" format="1">
  <advance width="1192"/>
  <unicode hex="0062"/>
  <outline>
    <contour>
      <point x="628" y="156" type="curve" smooth="yes"/>
      <point x="473" y="156"/>
      <point x="414" y="224"/>
      <point x="370" y="280" type="curve"/>
      <point x="370" y="562" type="line" smooth="yes"/>
      <point x="370" y="811"/>
      <point x="473" y="927"/>
      <point x="645" y="927" type="curve" smooth="yes"/>
      <point x="811" y="927"/>
      <point x="877" y="799"/>
      <point x="877" y="545" type="curve" smooth="yes"/>
      <point x="877" y="289"/>
      <point x="793" y="156"/>
    </contour>
    <contour>
      <point x="673" y="-18" type="curve" smooth="yes"/>
      <point x="950" y="-18"/>
      <point x="1103" y="209"/>
      <point x="1103" y="546" type="curve" smooth="yes"/>
      <point x="1103" y="873"/>
      <point x="960" y="1101"/>
      <point x="678" y="1101" type="curve" smooth="yes"/>
      <point x="502" y="1101"/>
      <point x="374" y="985"/>
      <point x="339" y="770" type="curve"/>
      <point x="371" y="768" type="line"/>
      <point x="375" y="1128" type="line"/>
      <point x="375" y="1560" type="line"/>
      <point x="153" y="1540" type="line"/>
      <point x="153" y="0" type="line"/>
      <point x="340" y="0" type="line"/>
      <point x="366" y="205" type="line"/>
      <point x="322" y="190" type="line"/>
      <point x="357" y="85"/>
      <point x="470" y="-18"/>
    </contour>
    <contour>
      <point x="658" y="0" type="move" name="bot"/>
    </contour>
  </outline>
</glyph>
<glyph name="c" format="1">
  <advance width="1079"/>
  <unicode hex="0063"/>
  <outline>
    <contour>
      <point x="611" y="1101" type="curve" smooth="yes"/>
      <point x="307" y="1101"/>
      <point x="93" y="890"/>
      <point x="93" y="541" type="curve"/>
      <point x="319" y="541" type="line"/>
      <point x="319" y="783"/>
      <point x="424" y="926"/>
      <point x="625" y="927" type="curve" smooth="yes"/>
      <point x="759" y="928"/>
      <point x="833" y="855"/>
      <point x="880" y="780" type="curve"/>
      <point x="894" y="780" type="line"/>
      <point x="1019" y="867" type="line"/>
      <point x="960" y="972"/>
      <point x="859" y="1101"/>
    </contour>
    <contour>
      <point x="611" y="-18" type="curve" smooth="yes"/>
      <point x="859" y="-18"/>
      <point x="960" y="111"/>
      <point x="1019" y="216" type="curve"/>
      <point x="894" y="303" type="line"/>
      <point x="880" y="303" type="line"/>
      <point x="833" y="228"/>
      <point x="759" y="155"/>
      <point x="625" y="156" type="curve" smooth="yes"/>
      <point x="424" y="157"/>
      <point x="319" y="299"/>
      <point x="319" y="541" type="curve"/>
      <point x="93" y="541" type="line"/>
      <point x="93" y="192"/>
      <point x="307" y="-18"/>
    </contour>
  </outline>
</glyph>
<glyph name="e" format="1">
  <advance width="1111"/>
  <unicode hex="0065"/>
  <outline>
    <contour>
      <point x="818" y="582" type="curve"/>
      <point x="863" y="621" type="line"/>
      <point x="259" y="621" type="line"/>
      <point x="316" y="582" type="line"/>
      <point x="317" y="815"/>
      <point x="444" y="933"/>
      <point x="592" y="933" type="curve" smooth="yes"/>
      <point x="741" y="933"/>
      <point x="818" y="827"/>
    </contour>
    <contour>
      <point x="635" y="-18" type="curve" smooth="yes"/>
      <point x="794" y="-14"/>
      <point x="922" y="37"/>
      <point x="993" y="98" type="curve"/>
      <point x="935" y="246" type="line"/>
      <point x="922" y="246" type="line"/>
      <point x="862" y="200"/>
      <point x="762" y="157"/>
      <point x="645" y="156" type="curve" smooth="yes"/>
      <point x="482" y="155"/>
      <point x="312" y="238"/>
      <point x="312" y="519" type="curve"/>
      <point x="258" y="473" type="line"/>
      <point x="1005" y="473" type="line"/>
      <point x="1005" y="473"/>
      <point x="1013" y="527"/>
      <point x="1013" y="586" type="curve" smooth="yes"/>
      <point x="1013" y="897"/>
      <point x="864" y="1097"/>
      <point x="588" y="1101" type="curve" smooth="yes"/>
      <point x="308" y="1105"/>
      <point x="86" y="884"/>
      <point x="86" y="540" type="curve" smooth="yes"/>
      <point x="86" y="172"/>
      <point x="321" y="-26"/>
    </contour>
  </outline>
</glyph>
<glyph name="g" format="1">
  <advance width="1192"/>
  <unicode hex="0067"/>
  <outline>
    <contour>
      <point x="862" y="881" type="curve"/>
      <point x="862" y="936"/>
      <point x="802" y="1092"/>
      <point x="575" y="1101" type="curve" smooth="yes"/>
      <point x="309" y="1111"/>
      <point x="93" y="932"/>
      <point x="93" y="554" type="curve" smooth="yes"/>
      <point x="93" y="149"/>
      <point x="301" y="-34"/>
      <point x="586" y="-18" type="curve" smooth="yes"/>
      <point x="814" y="-5"/>
      <point x="888" y="167"/>
      <point x="890" y="216" type="curve"/>
      <point x="830" y="216" type="line"/>
      <point x="844" y="29" type="line" smooth="yes"/>
      <point x="855" y="-139"/>
      <point x="799" y="-316"/>
      <point x="554" y="-320" type="curve" smooth="yes"/>
      <point x="447" y="-322"/>
      <point x="331" y="-305"/>
      <point x="249" y="-282" type="curve"/>
      <point x="223" y="-282" type="line"/>
      <point x="204" y="-457" type="line"/>
      <point x="331" y="-489"/>
      <point x="432" y="-502"/>
      <point x="567" y="-501" type="curve" smooth="yes"/>
      <point x="921" y="-498"/>
      <point x="1043" y="-241"/>
      <point x="1043" y="50" type="curve" smooth="yes"/>
      <point x="1043" y="1082" type="line"/>
      <point x="838" y="1082" type="line"/>
      <point x="830" y="881" type="line"/>
      <point x="830" y="881"/>
      <point x="862" y="881"/>
    </contour>
    <contour>
      <point x="581" y="156" type="curve" smooth="yes"/>
      <point x="404" y="156"/>
      <point x="319" y="293"/>
      <point x="319" y="554" type="curve" smooth="yes"/>
      <point x="319" y="825"/>
      <point x="435" y="927"/>
      <point x="583" y="927" type="curve" smooth="yes"/>
      <point x="697" y="927"/>
      <point x="783" y="876"/>
      <point x="826" y="807" type="curve"/>
      <point x="826" y="251" type="line"/>
      <point x="796" y="212"/>
      <point x="700" y="156"/>
    </contour>
    <contour>
      <point x="596.0" y="0" type="move" name="bot"/>
    </contour>
    <contour>
      <point x="596.0" y="1082" type="move" name="top"/>
    </contour>
  </outline>
</glyph>
<glyph name="i" format="1">
  <advance width="596"/>
  <unicode hex="0069"/>
  <outline>
    <contour>
      <point x="303" y="1248" type="curve" smooth="yes"/>
      <point x="386" y="1248"/>
      <point x="434" y="1298"/>
      <point x="434" y="1391" type="curve" smooth="yes"/>
      <point x="434" y="1485"/>
      <point x="386" y="1536"/>
      <point x="303" y="1536" type="curve" smooth="yes"/>
      <point x="219" y="1536"/>
      <point x="171" y="1485"/>
      <point x="171" y="1391" type="curve" smooth="yes"/>
      <point x="171" y="1297"/>
      <point x="220" y="1248"/>
    </contour>
    <contour>
      <point x="193" y="0" type="line"/>
      <point x="413" y="0" type="line"/>
      <point x="413" y="1082" type="line"/>
      <point x="193" y="1082" type="line"/>
    </contour>
    <contour>
      <point x="306" y="0" type="move" name="ogonek"/>
    </contour>
  </outline>
</glyph>
<glyph name="j" format="1">
  <advance width="653"></advance>
  <unicode hex="006A"></unicode>
  <outline>
    <contour>
      <point x="351" y="1248" type="curve" smooth="yes"></point>
      <point x="434" y="1248"></point>
      <point x="482" y="1298"></point>
      <point x="482" y="1391" type="curve" smooth="yes"></point>
      <point x="482" y="1485"></point>
      <point x="434" y="1536"></point>
      <point x="351" y="1536" type="curve" smooth="yes"></point>
      <point x="267" y="1536"></point>
      <point x="219" y="1485"></point>
      <point x="219" y="1391" type="curve" smooth="yes"></point>
      <point x="219" y="1297"></point>
      <point x="268" y="1248"></point>
    </contour>
    <contour>
      <point x="42" y="-441" type="line"></point>
      <point x="105" y="-419" type="line" smooth="yes"></point>
      <point x="385" y="-321"></point>
      <point x="449" y="-290"></point>
      <point x="449" y="17" type="curve" smooth="yes"></point>
      <point x="449" y="1082" type="line"></point>
      <point x="229" y="1082" type="line"></point>
      <point x="229" y="11" type="line" smooth="yes"></point>
      <point x="229" y="-158"></point>
      <point x="210" y="-190"></point>
      <point x="53" y="-248" type="curve" smooth="yes"></point>
      <point x="-25" y="-277" type="line"></point>
    </contour>
  </outline>
</glyph>
<glyph name="m" format="1">
  <advance width="1760"/>
  <unicode hex="006D"/>
  <outline>
    <contour>
      <point x="118" y="0" type="line"/>
      <point x="339" y="0" type="line"/>
      <point x="339" y="572" type="line" smooth="yes"/>
      <point x="339" y="782"/>
      <point x="437" y="927"/>
      <point x="589" y="927" type="curve" smooth="yes"/>
      <point x="722" y="927"/>
      <point x="770" y="828"/>
      <point x="770" y="619" type="curve" smooth="yes"/>
      <point x="770" y="0" type="line"/>
      <point x="991" y="0" type="line"/>
      <point x="991" y="573" type="line" smooth="yes"/>
      <point x="991" y="782"/>
      <point x="1113" y="927"/>
      <point x="1252" y="927" type="curve" smooth="yes"/>
      <point x="1400" y="927"/>
      <point x="1422" y="797"/>
      <point x="1422" y="617" type="curve" smooth="yes"/>
      <point x="1422" y="0" type="line"/>
      <point x="1643" y="0" type="line"/>
      <point x="1643" y="692" type="line" smooth="yes"/>
      <point x="1643" y="958"/>
      <point x="1529" y="1101"/>
      <point x="1298" y="1101" type="curve" smooth="yes"/>
      <point x="1145" y="1101"/>
      <point x="988" y="1020"/>
      <point x="921" y="816" type="curve"/>
      <point x="957" y="816" type="line"/>
      <point x="923" y="992"/>
      <point x="816" y="1101"/>
      <point x="643" y="1101" type="curve" smooth="yes"/>
      <point x="465" y="1101"/>
      <point x="339" y="987"/>
      <point x="293" y="804" type="curve"/>
      <point x="335" y="804" type="line"/>
      <point x="300" y="1082" type="line"/>
      <point x="118" y="1082" type="line"/>
    </contour>
  </outline>
</glyph>
<glyph name="o" format="1">
  <advance width="1164"/>
  <unicode hex="006F"/>
  <outline>
    <contour>
      <point x="582" y="156" type="curve"/>
      <point x="396" y="156"/>
      <point x="312" y="302"/>
      <point x="312" y="543" type="curve" smooth="yes"/>
      <point x="312" y="784"/>
      <point x="396" y="927"/>
      <point x="582" y="927" type="curve"/>
      <point x="768" y="927"/>
      <point x="852" y="784"/>
      <point x="852" y="543" type="curve" smooth="yes"/>
      <point x="852" y="302"/>
      <point x="768" y="156"/>
    </contour>
    <contour>
      <point x="582" y="-18" type="curve"/>
      <point x="892" y="-18"/>
      <point x="1078" y="205"/>
      <point x="1078" y="543" type="curve" smooth="yes"/>
      <point x="1078" y="882"/>
      <point x="893" y="1101"/>
      <point x="582" y="1101" type="curve"/>
      <point x="271" y="1101"/>
      <point x="86" y="882"/>
      <point x="86" y="543" type="curve" smooth="yes"/>
      <point x="86" y="205"/>
      <point x="272" y="-18"/>
    </contour>
    <contour>
      <point x="582.0" y="0" type="move" name="bot"/>
    </contour>
    <contour>
      <point x="582.0" y="1082" type="move" name="top"/>
    </contour>
    <contour>
      <point x="632" y="0" type="move" name="ogonek"/>
    </contour>
  </outline>
</glyph>
<glyph name="z" format="1">
  <advance width="994"/>
  <unicode hex="007A"/>
  <outline>
    <contour>
      <point x="99" y="0" type="line"/>
      <point x="913" y="0" type="line"/>
      <point x="913" y="170" type="line"/>
      <point x="294" y="170" type="line"/>
      <point x="310" y="100" type="line"/>
      <point x="876" y="925" type="line"/>
      <point x="876" y="1082" type="line"/>
      <point x="121" y="1082" type="line"/>
      <point x="121" y="919" type="line"/>
      <point x="699" y="919" type="line"/>
      <point x="674" y="981" type="line"/>
      <point x="99" y="143" type="line"/>
    </contour>
    <contour>
      <point x="497.0" y="0" type="move" name="bot"/>
    </contour>
    <contour>
      <point x="497.0" y="1082" type="move" name="top"/>
    </contour>
  </outline>
</glyph>
<glyph name="sterling" format="1">
  <advance width="1164"/>
  <unicode hex="00A3"/>
  <outline>
    <contour>
      <point x="92" y="10" type="line"/>
      <point x="81" y="183" type="line"/>
      <point x="256" y="203" type="line"/>
      <point x="256" y="674" type="line"/>
      <point x="76" y="674" type="line"/>
      <point x="76" y="840" type="line"/>
      <point x="256" y="840" type="line"/>
      <point x="256" y="945" type="line" smooth="yes"/>
      <point x="256" y="1255"/>
      <point x="348" y="1508"/>
      <point x="682" y="1508" type="curve" smooth="yes"/>
      <point x="830" y="1508"/>
      <point x="952" y="1454"/>
      <point x="1045" y="1373" type="curve"/>
      <point x="951" y="1223" type="line"/>
      <point x="866" y="1286"/>
      <point x="786" y="1322"/>
      <point x="689" y="1322" type="curve" smooth="yes"/>
      <point x="524" y="1322"/>
      <point x="466" y="1206"/>
      <point x="466" y="1018" type="curve" smooth="yes"/>
      <point x="466" y="840" type="line"/>
      <point x="853" y="840" type="line"/>
      <point x="853" y="674" type="line"/>
      <point x="466" y="674" type="line"/>
      <point x="466" y="205" type="line"/>
      <point x="1061" y="205" type="line"/>
      <point x="1052" y="10" type="line"/>
    </contour>
  </outline>
</glyph>
<glyph name="dieresis" format="1">
  <advance width="995"/>
  <unicode hex="00A8"/>
  <outline>
    <contour>
      <point x="276" y="1192" type="curve" smooth="yes"/>
      <point x="359" y="1192"/>
      <point x="412" y="1258"/>
      <point x="412" y="1331" type="curve" smooth="yes"/>
      <point x="412" y="1405"/>
      <point x="359" y="1472"/>
      <point x="276" y="1472" type="curve" smooth="yes"/>
      <point x="192" y="1472"/>
      <point x="138" y="1405"/>
      <point x="138" y="1331" type="curve" smooth="yes"/>
      <point x="138" y="1257"/>
      <point x="193" y="1192"/>
    </contour>
    <contour>
      <point x="721" y="1192" type="curve" smooth="yes"/>
      <point x="804" y="1192"/>
      <point x="857" y="1258"/>
      <point x="857" y="1331" type="curve" smooth="yes"/>
      <point x="857" y="1405"/>
      <point x="804" y="1472"/>
      <point x="721" y="1472" type="curve" smooth="yes"/>
      <point x="637" y="1472"/>
      <point x="583" y="1405"/>
      <point x="583" y="1331" type="curve" smooth="yes"/>
      <point x="583" y="1257"/>
      <point x="638" y="1192"/>
    </contour>
    <contour>
      <point x="501" y="1082" type="move" name="_top"/>
    </contour>
  </outline>
</glyph>
<glyph name="guillemotleft" format="1">
  <advance width="1022"/>
  <unicode hex="00AB"/>
  <outline>
    <contour>
      <point x="757" y="138" type="line"/>
      <point x="930" y="138" type="line"/>
      <point x="668" y="564" type="line"/>
      <point x="935" y="988" type="line"/>
      <point x="759" y="988" type="line"/>
      <point x="455" y="561" type="line"/>
    </contour>
    <contour>
      <point x="363" y="138" type="line"/>
      <point x="536" y="138" type="line"/>
      <point x="274" y="564" type="line"/>
      <point x="542" y="988" type="line"/>
      <point x="366" y="988" type="line"/>
      <point x="61" y="561" type="line"/>
    </contour>
  </outline>
</glyph>
<glyph name="registered" format="1">
  <advance width="1875"/>
  <unicode hex="00AE"/>
  <outline>
    <contour>
      <point x="936" y="-17" type="curve" smooth="yes"/>
      <point x="1337" y="-17"/>
      <point x="1705" y="279"/>
      <point x="1705" y="759" type="curve" smooth="yes"/>
      <point x="1705" y="1237"/>
      <point x="1336" y="1535"/>
      <point x="935" y="1535" type="curve" smooth="yes"/>
      <point x="536" y="1535"/>
      <point x="170" y="1238"/>
      <point x="170" y="759" type="curve" smooth="yes"/>
      <point x="170" y="279"/>
      <point x="537" y="-17"/>
    </contour>
    <contour>
      <point x="936" y="89" type="curve" smooth="yes"/>
      <point x="584" y="89"/>
      <point x="292" y="358"/>
      <point x="292" y="759" type="curve" smooth="yes"/>
      <point x="292" y="1158"/>
      <point x="583" y="1428"/>
      <point x="935" y="1428" type="curve" smooth="yes"/>
      <point x="1290" y="1428"/>
      <point x="1583" y="1157"/>
      <point x="1583" y="758" type="curve" smooth="yes"/>
      <point x="1583" y="358"/>
      <point x="1290" y="89"/>
    </contour>
    <contour>
      <point x="773" y="840" type="line"/>
      <point x="773" y="1124" type="line"/>
      <point x="919" y="1124" type="line" smooth="yes"/>
      <point x="1076" y="1124"/>
      <point x="1141" y="1111"/>
      <point x="1141" y="986" type="curve" smooth="yes"/>
      <point x="1141" y="870"/>
      <point x="1080" y="840"/>
      <point x="940" y="840" type="curve" smooth="yes"/>
    </contour>
    <contour>
      <point x="630" y="283" type="line"/>
      <point x="773" y="283" type="line"/>
      <point x="773" y="713" type="line"/>
      <point x="944" y="713" type="line"/>
      <point x="967" y="689"/>
      <point x="1163" y="283"/>
      <point x="1163" y="283" type="curve"/>
      <point x="1322" y="283" type="line"/>
      <point x="1322" y="283"/>
      <point x="1125" y="678"/>
      <point x="1084" y="733" type="curve"/>
      <point x="1225" y="761"/>
      <point x="1282" y="849"/>
      <point x="1282" y="990" type="curve" smooth="yes"/>
      <point x="1282" y="1175"/>
      <point x="1167" y="1250"/>
      <point x="950" y="1250" type="curve" smooth="yes"/>
      <point x="630" y="1250" type="line"/>
    </contour>
  </outline>
</glyph>
<glyph name="macron" format="1">
  <advance width="965"/>
  <unicode hex="00AF"/>
  <outline>
    <contour>
      <point x="156" y="1310" type="line"/>
      <point x="809" y="1310" type="line"/>
      <point x="809" y="1463" type="line"/>
      <point x="156" y="1463" type="line"/>
    </contour>
    <contour>
      <point x="482.5" y="1082" type="move" name="_top"/>
    </contour>
  </outline>
</glyph>
<glyph name="plusminus" format="1">
  <advance width="1136"/>
  <unicode hex="00B1"/>
  <outline>
    <contour>
      <point x="482" y="243" type="line"/>
      <point x="655" y="243" type="line"/>
      <point x="655" y="625" type="line"/>
      <point x="1020" y="625" type="line"/>
      <point x="1020" y="802" type="line"/>
      <point x="655" y="802" type="line"/>
      <point x="655" y="1175" type="line"/>
      <point x="482" y="1175" type="line"/>
      <point x="482" y="802" type="line"/>
      <point x="114" y="802" type="line"/>
      <point x="114" y="625" type="line"/>
      <point x="482" y="625" type="line"/>
    </contour>
    <contour>
      <point x="105" y="0" type="line"/>
      <point x="105" y="162" type="line"/>
      <point x="1039" y="162" type="line"/>
      <point x="1039" y="0" type="line"/>
    </contour>
  </outline>
</glyph>
<glyph name="uni00B2" format="1">
  <advance width="852"/>
  <unicode hex="00B2"/>
  <outline>
    <contour>
      <point x="152" y="600" type="line"/>
      <point x="152" y="735" type="line"/>
      <point x="225" y="811"/>
      <point x="547" y="1068"/>
      <point x="547" y="1200" type="curve" smooth="yes"/>
      <point x="547" y="1286"/>
      <point x="482" y="1331"/>
      <point x="416" y="1331" type="curve" smooth="yes"/>
      <point x="343" y="1331"/>
      <point x="264" y="1298"/>
      <point x="214" y="1229" type="curve"/>
      <point x="137" y="1336" type="line"/>
      <point x="195" y="1429"/>
      <point x="306" y="1479"/>
      <point x="427" y="1479" type="curve" smooth="yes"/>
      <point x="571" y="1479"/>
      <point x="710" y="1382"/>
      <point x="710" y="1207" type="curve" smooth="yes"/>
      <point x="710" y="1015"/>
      <point x="567" y="903"/>
      <point x="381" y="738" type="curve"/>
      <point x="706" y="738" type="line"/>
      <point x="693" y="600" type="line"/>
    </contour>
  </outline>
</glyph>
<glyph name="uni00B3" format="1">
  <advance width="852"/>
  <unicode hex="00B3"/>
  <outline>
    <contour>
      <point x="400" y="594" type="curve" smooth="yes"/>
      <point x="554" y="594"/>
      <point x="685" y="690"/>
      <point x="685" y="864" type="curve" smooth="yes"/>
      <point x="685" y="960"/>
      <point x="626" y="1038"/>
      <point x="543" y="1072" type="curve"/>
      <point x="629" y="1103"/>
      <point x="665" y="1169"/>
      <point x="666" y="1244" type="curve"/>
      <point x="666" y="1412"/>
      <point x="540" y="1487"/>
      <point x="404" y="1487" type="curve" smooth="yes"/>
      <point x="310" y="1487"/>
      <point x="211" y="1454"/>
      <point x="148" y="1394" type="curve"/>
      <point x="203" y="1285" type="line"/>
      <point x="243" y="1319"/>
      <point x="328" y="1349"/>
      <point x="396" y="1349" type="curve" smooth="yes"/>
      <point x="466" y="1349"/>
      <point x="506" y="1308"/>
      <point x="506" y="1243" type="curve" smooth="yes"/>
      <point x="506" y="1173"/>
      <point x="453" y="1134"/>
      <point x="349" y="1134" type="curve" smooth="yes"/>
      <point x="269" y="1134" type="line"/>
      <point x="269" y="995" type="line"/>
      <point x="349" y="996" type="line" smooth="yes"/>
      <point x="459" y="996"/>
      <point x="531" y="952"/>
      <point x="531" y="866" type="curve" smooth="yes"/>
      <point x="531" y="774"/>
      <point x="475" y="732"/>
      <point x="395" y="732" type="curve" smooth="yes"/>
      <point x="334" y="732"/>
      <point x="243" y="760"/>
      <point x="198" y="802" type="curve"/>
      <point x="144" y="679" type="line"/>
      <point x="212" y="621"/>
      <point x="315" y="594"/>
    </contour>
  </outline>
</glyph>
<glyph name="acute" format="1">
  <advance width="738"/>
  <unicode hex="00B4"/>
  <outline>
    <contour>
      <point x="229" y="1058" type="line"/>
      <point x="367" y="1058" type="line"/>
      <point x="676" y="1469" type="line"/>
      <point x="407" y="1469" type="line"/>
    </contour>
    <contour>
      <point x="80" y="1058.0" type="move" name="_top"/>
    </contour>
  </outline>
</glyph>
<glyph name="periodcentered" format="1">
  <advance width="624"/>
  <unicode hex="00B7"/>
  <outline>
    <contour>
      <point x="226" y="725" type="line"/>
      <point x="394" y="725" type="line"/>
      <point x="394" y="558" type="line"/>
      <point x="226" y="558" type="line"/>
    </contour>
  </outline>
</glyph>
<glyph name="onequarter" format="1">
  <advance width="1590"/>
  <unicode hex="00BC"/>
  <outline>
    <contour>
      <point x="76" y="597" type="line"/>
      <point x="530" y="597" type="line"/>
      <point x="530" y="741" type="line"/>
      <point x="393" y="741" type="line"/>
      <point x="393" y="1492" type="line"/>
      <point x="258" y="1492" type="line"/>
      <point x="224" y="1467"/>
      <point x="104" y="1402"/>
      <point x="62" y="1383" type="curve"/>
      <point x="62" y="1238" type="line"/>
      <point x="76" y="1243"/>
      <point x="191" y="1292"/>
      <point x="228" y="1312" type="curve"/>
      <point x="228" y="741" type="line"/>
      <point x="76" y="741" type="line"/>
    </contour>
    <contour>
      <point x="1306" y="0" type="line"/>
      <point x="1458" y="0" type="line"/>
      <point x="1458" y="184" type="line"/>
      <point x="1566" y="184" type="line"/>
      <point x="1571" y="312" type="line"/>
      <point x="1458" y="312" type="line"/>
      <point x="1458" y="867" type="line"/>
      <point x="1296" y="867" type="line"/>
      <point x="922" y="309" type="line"/>
      <point x="922" y="184" type="line"/>
      <point x="1306" y="184" type="line"/>
    </contour>
    <contour>
      <point x="284" y="0" type="line"/>
      <point x="465" y="0" type="line"/>
      <point x="1418" y="1492" type="line"/>
      <point x="1242" y="1492" type="line"/>
    </contour>
    <contour>
      <point x="1089" y="312" type="line"/>
      <point x="1306" y="665" type="line"/>
      <point x="1306" y="312" type="line"/>
    </contour>
  </outline>
</glyph>
<glyph name="AE" format="1">
  <advance width="1647"/>
  <unicode hex="00C6"/>
  <outline>
    <contour>
      <point x="-19" y="0" type="line"/>
      <point x="217" y="0" type="line"/>
      <point x="425" y="499" type="line"/>
      <point x="282" y="433" type="line"/>
      <point x="884" y="433" type="line"/>
      <point x="884" y="433"/>
      <point x="884" y="1492"/>
      <point x="884" y="1492" type="curve"/>
      <point x="604" y="1492" type="line"/>
    </contour>
    <contour>
      <point x="435" y="532" type="line"/>
      <point x="812" y="1481" type="line"/>
      <point x="786" y="1481" type="line"/>
      <point x="786" y="533" type="line"/>
      <point x="834" y="607" type="line"/>
      <point x="332" y="607" type="line"/>
    </contour>
    <contour>
      <point x="736" y="0" type="line"/>
      <point x="1598" y="0" type="line"/>
      <point x="1606" y="195" type="line"/>
      <point x="906" y="195" type="line"/>
      <point x="976" y="125" type="line"/>
      <point x="976" y="754" type="line"/>
      <point x="905" y="682" type="line"/>
      <point x="1536" y="682" type="line"/>
      <point x="1536" y="873" type="line"/>
      <point x="906" y="873" type="line"/>
      <point x="976" y="802" type="line"/>
      <point x="976" y="1372" type="line"/>
      <point x="906" y="1302" type="line"/>
      <point x="1579" y="1302" type="line"/>
      <point x="1589" y="1492" type="line"/>
      <point x="736" y="1492" type="line"/>
    </contour>
  </outline>
</glyph>
<glyph name="Eth" format="1">
  <advance width="1391"/>
  <unicode hex="00D0"/>
  <outline>
    <contour>
      <point x="707" y="835" type="line"/>
      <point x="69" y="835" type="line"/>
      <point x="69" y="676" type="line"/>
      <point x="707" y="676" type="line"/>
    </contour>
    <component base="D" xOffset="-108.199997"/>
  </outline>
</glyph>
<glyph name="multiply" format="1">
  <advance width="994"/>
  <unicode hex="00D7"/>
  <outline>
    <contour>
      <point x="777" y="168" type="line"/>
      <point x="895" y="296" type="line"/>
      <point x="895" y="296"/>
      <point x="668" y="539"/>
      <point x="619" y="589" type="curve"/>
      <point x="893" y="881" type="line"/>
      <point x="772" y="1006" type="line"/>
      <point x="498" y="716" type="line"/>
      <point x="221" y="1008" type="line"/>
      <point x="103" y="883" type="line"/>
      <point x="376" y="589" type="line"/>
      <point x="99" y="294" type="line"/>
      <point x="217" y="167" type="line"/>
      <point x="498" y="461" type="line"/>
    </contour>
  </outline>
</glyph>
<glyph name="germandbls" format="1">
  <advance width="1249"/>
  <unicode hex="00DF"/>
  <outline>
    <contour>
      <point x="360" y="0" type="line"/>
      <point x="137" y="0" type="line"/>
      <point x="137" y="1040" type="line" smooth="yes"/>
      <point x="137" y="1335"/>
      <point x="283" y="1514"/>
      <point x="583" y="1514" type="curve" smooth="yes"/>
      <point x="813" y="1514"/>
      <point x="992" y="1401"/>
      <point x="992" y="1183" type="curve" smooth="yes"/>
      <point x="992" y="945"/>
      <point x="801" y="873"/>
      <point x="801" y="790" type="curve" smooth="yes"/>
      <point x="801" y="682"/>
      <point x="1168" y="621"/>
      <point x="1168" y="311" type="curve" smooth="yes"/>
      <point x="1168" y="104"/>
      <point x="1036" y="-20"/>
      <point x="821" y="-20" type="curve" smooth="yes"/>
      <point x="711" y="-20"/>
      <point x="589" y="9"/>
      <point x="486" y="54" type="curve"/>
      <point x="541" y="218" type="line"/>
      <point x="589" y="193"/>
      <point x="687" y="160"/>
      <point x="781" y="160" type="curve" smooth="yes"/>
      <point x="883" y="160"/>
      <point x="943" y="213"/>
      <point x="943" y="314" type="curve" smooth="yes"/>
      <point x="943" y="513"/>
      <point x="585" y="572"/>
      <point x="585" y="767" type="curve" smooth="yes"/>
      <point x="585" y="938"/>
      <point x="786" y="992"/>
      <point x="786" y="1178" type="curve" smooth="yes"/>
      <point x="786" y="1275"/>
      <point x="714" y="1341"/>
      <point x="593" y="1341" type="curve" smooth="yes"/>
      <point x="419" y="1341"/>
      <point x="360" y="1242"/>
      <point x="360" y="1039" type="curve" smooth="yes"/>
    </contour>
  </outline>
</glyph>
<glyph name="Dcroat" format="1">
  <advance width="1391"/>
  <unicode hex="0110"/>
  <outline>
    <contour>
      <point x="88" y="719" type="line"/>
      <point x="88" y="812" type="line"/>
      <point x="612" y="812" type="line"/>
      <point x="612" y="719" type="line"/>
    </contour>
    <component base="D" xOffset="-108.199997"/>
  </outline>
</glyph>
<glyph name="Hbar" format="1">
  <advance width="1505"/>
  <unicode hex="0126"/>
  <outline>
    <contour>
      <point x="167" y="0" type="line"/>
      <point x="167" y="1162" type="line"/>
      <point x="82" y="1162" type="line"/>
      <point x="82" y="1290" type="line"/>
      <point x="167" y="1290" type="line"/>
      <point x="167" y="1484" type="line"/>
      <point x="388" y="1484" type="line"/>
      <point x="388" y="1290" type="line"/>
      <point x="1114" y="1290" type="line"/>
      <point x="1114" y="1484" type="line"/>
      <point x="1337" y="1484" type="line"/>
      <point x="1337" y="1290" type="line"/>
      <point x="1422" y="1290" type="line"/>
      <point x="1422" y="1162" type="line"/>
      <point x="1337" y="1162" type="line"/>
      <point x="1337" y="0" type="line"/>
      <point x="1114" y="0" type="line"/>
      <point x="1114" y="677" type="line"/>
      <point x="388" y="677" type="line"/>
      <point x="388" y="0" type="line"/>
    </contour>
    <contour>
      <point x="388" y="858" type="line"/>
      <point x="1114" y="858" type="line"/>
      <point x="1114" y="1162" type="line"/>
      <point x="388" y="1162" type="line"/>
    </contour>
  </outline>
</glyph>
<glyph name="hbar" format="1">
  <advance width="1192"/>
  <unicode hex="0127"/>
  <outline>
    <contour>
      <point x="141" y="0" type="line"/>
      <point x="354" y="0" type="line"/>
      <point x="354" y="752" type="line"/>
      <point x="389" y="851"/>
      <point x="509" y="956"/>
      <point x="655" y="956" type="curve" smooth="yes"/>
      <point x="813" y="956"/>
      <point x="845" y="858"/>
      <point x="845" y="642" type="curve" smooth="yes"/>
      <point x="845" y="0" type="line"/>
      <point x="1056" y="0" type="line"/>
      <point x="1056" y="671" type="line" smooth="yes"/>
      <point x="1056" y="984"/>
      <point x="928" y="1132"/>
      <point x="712" y="1132" type="curve" smooth="yes"/>
      <point x="563" y="1132"/>
      <point x="442" y="1078"/>
      <point x="354" y="980" type="curve"/>
      <point x="354" y="1246" type="line"/>
      <point x="628" y="1246" type="line"/>
      <point x="628" y="1382" type="line"/>
      <point x="354" y="1382" type="line"/>
      <point x="354" y="1520" type="line"/>
      <point x="141" y="1499" type="line"/>
      <point x="141" y="1382" type="line"/>
      <point x="48" y="1382" type="line"/>
      <point x="48" y="1246" type="line"/>
      <point x="141" y="1246" type="line"/>
    </contour>
  </outline>
</glyph>
<glyph name="Eng" format="1">
  <advance width="1505"/>
  <unicode hex="014A"/>
  <outline>
    <contour>
      <point x="857" y="-325" type="curve" smooth="yes"/>
      <point x="840" y="-325"/>
      <point x="793" y="-324"/>
      <point x="711" y="-316" type="curve"/>
      <point x="690" y="-118" type="line"/>
      <point x="781" y="-124"/>
      <point x="822" y="-125"/>
      <point x="835" y="-125" type="curve" smooth="yes"/>
      <point x="1060" y="-125"/>
      <point x="1085" y="-58"/>
      <point x="1085" y="170" type="curve" smooth="yes"/>
      <point x="1085" y="985" type="line" smooth="yes"/>
      <point x="1085" y="1236"/>
      <point x="1017" y="1323"/>
      <point x="830" y="1323" type="curve" smooth="yes"/>
      <point x="663" y="1323"/>
      <point x="497" y="1228"/>
      <point x="408" y="1082" type="curve"/>
      <point x="408" y="7" type="line"/>
      <point x="172" y="7" type="line"/>
      <point x="171" y="1495" type="line"/>
      <point x="383" y="1495" type="line"/>
      <point x="404" y="1307" type="line"/>
      <point x="546" y="1461"/>
      <point x="726" y="1519"/>
      <point x="888" y="1519" type="curve" smooth="yes"/>
      <point x="1175" y="1519"/>
      <point x="1322" y="1327"/>
      <point x="1322" y="993" type="curve" smooth="yes"/>
      <point x="1322" y="169" type="line" smooth="yes"/>
      <point x="1322" y="-146"/>
      <point x="1219" y="-325"/>
    </contour>
  </outline>
</glyph>
<glyph name="eng" format="1">
  <advance width="1192"/>
  <unicode hex="014B"/>
  <outline>
    <contour>
      <point x="616" y="-327" type="line"/>
      <point x="684" y="-327" type="line" smooth="yes"/>
      <point x="999" y="-327"/>
      <point x="1052" y="-168"/>
      <point x="1053" y="142" type="curve" smooth="yes"/>
      <point x="1053" y="696" type="line" smooth="yes"/>
      <point x="1053" y="982"/>
      <point x="939" y="1141"/>
      <point x="689" y="1141" type="curve" smooth="yes"/>
      <point x="536" y="1141"/>
      <point x="427" y="1076"/>
      <point x="345" y="974" type="curve"/>
      <point x="322" y="1116" type="line"/>
      <point x="131" y="1116" type="line"/>
      <point x="131" y="7" type="line"/>
      <point x="361" y="7" type="line"/>
      <point x="361" y="582" type="line" smooth="yes"/>
      <point x="361" y="656"/>
      <point x="364" y="723"/>
      <point x="374" y="778" type="curve"/>
      <point x="410" y="883"/>
      <point x="495" y="961"/>
      <point x="637" y="961" type="curve" smooth="yes"/>
      <point x="788" y="961"/>
      <point x="823" y="860"/>
      <point x="824" y="687" type="curve" smooth="yes"/>
      <point x="824" y="90" type="line" smooth="yes"/>
      <point x="824" y="-107"/>
      <point x="808" y="-141"/>
      <point x="649" y="-141" type="curve" smooth="yes"/>
      <point x="596" y="-141" type="line"/>
    </contour>
  </outline>
</glyph>
<glyph name="OE" format="1">
  <advance width="2068"/>
  <unicode hex="0152"/>
  <outline>
    <contour>
      <point x="811" y="195" type="line" smooth="yes"/>
      <point x="519" y="195"/>
      <point x="362" y="398"/>
      <point x="362" y="724" type="curve" smooth="yes"/>
      <point x="362" y="1061"/>
      <point x="525" y="1266"/>
      <point x="812" y="1266" type="curve" smooth="yes"/>
      <point x="1007" y="1266" type="line"/>
      <point x="1007" y="195" type="line"/>
    </contour>
    <contour>
      <point x="1930" y="195" type="line"/>
      <point x="1247" y="195" type="line"/>
      <point x="1247" y="654" type="line"/>
      <point x="1860" y="654" type="line"/>
      <point x="1860" y="845" type="line"/>
      <point x="1247" y="845" type="line"/>
      <point x="1247" y="1266" type="line"/>
      <point x="1900" y="1266" type="line"/>
      <point x="1913" y="1456" type="line"/>
      <point x="812" y="1456" type="line" smooth="yes"/>
      <point x="381" y="1456"/>
      <point x="108" y="1201"/>
      <point x="108" y="725" type="curve" smooth="yes"/>
      <point x="108" y="258"/>
      <point x="376" y="0"/>
      <point x="812" y="0" type="curve"/>
      <point x="1922" y="0" type="line"/>
    </contour>
  </outline>
</glyph>
<glyph name="tbar" format="1">
  <advance width="880"/>
  <unicode hex="0167"/>
  <outline>
    <contour>
      <point x="551" y="-19" type="curve" smooth="yes"/>
      <point x="286" y="-19"/>
      <point x="266" y="113"/>
      <point x="266" y="452" type="curve" smooth="yes"/>
      <point x="266" y="648" type="line"/>
      <point x="112" y="648" type="line"/>
      <point x="112" y="776" type="line"/>
      <point x="266" y="776" type="line"/>
      <point x="266" y="995" type="line"/>
      <point x="99" y="995" type="line"/>
      <point x="113" y="1114" type="line"/>
      <point x="266" y="1114" type="line"/>
      <point x="309" y="1367" type="line"/>
      <point x="432" y="1375" type="line"/>
      <point x="432" y="1114" type="line"/>
      <point x="721" y="1114" type="line"/>
      <point x="721" y="995" type="line"/>
      <point x="432" y="995" type="line"/>
      <point x="432" y="776" type="line"/>
      <point x="640" y="776" type="line"/>
      <point x="640" y="648" type="line"/>
      <point x="432" y="648" type="line"/>
      <point x="432" y="372" type="line" smooth="yes"/>
      <point x="432" y="164"/>
      <point x="455" y="119"/>
      <point x="589" y="119" type="curve" smooth="yes"/>
      <point x="607" y="119"/>
      <point x="649" y="126"/>
      <point x="725" y="131" type="curve"/>
      <point x="740" y="-6" type="line"/>
      <point x="616" y="-17"/>
      <point x="585" y="-19"/>
    </contour>
  </outline>
</glyph>
<glyph name="uni0237" format="1">
  <advance width="994"/>
  <unicode hex="0237"/>
  <outline>
    <contour>
      <point x="324" y="-431" type="line"/>
      <point x="386" y="-431" type="line" smooth="yes"/>
      <point x="692" y="-431"/>
      <point x="753" y="-307"/>
      <point x="753" y="-19" type="curve" smooth="yes"/>
      <point x="753" y="1126" type="line"/>
      <point x="519" y="1126" type="line"/>
      <point x="519" y="-35" type="line" smooth="yes"/>
      <point x="519" y="-199"/>
      <point x="522" y="-248"/>
      <point x="356" y="-248" type="curve" smooth="yes"/>
      <point x="292" y="-248" type="line"/>
    </contour>
  </outline>
</glyph>
<glyph name="uni02BC" format="1">
  <advance width="624"/>
  <unicode hex="02BC"/>
  <outline>
    <contour>
      <point x="214" y="1013" type="line"/>
      <point x="347" y="1013" type="line"/>
      <point x="443" y="1513" type="line"/>
      <point x="259" y="1513" type="line"/>
    </contour>
  </outline>
</glyph>
<glyph name="circumflex" format="1">
  <advance width="937"/>
  <unicode hex="02C6"/>
  <outline>
    <contour>
      <point x="151" y="1152" type="line"/>
      <point x="311" y="1152" type="line"/>
      <point x="467" y="1314" type="line"/>
      <point x="631" y="1152" type="line"/>
      <point x="793" y="1152" type="line"/>
      <point x="575" y="1467" type="line"/>
      <point x="373" y="1467" type="line"/>
    </contour>
    <contour>
      <point x="468" y="1058" type="move" name="_top"/>
    </contour>
  </outline>
</glyph>
<glyph name="caron" format="1">
  <advance width="965"/>
  <unicode hex="02C7"/>
  <outline>
    <contour>
      <point x="378" y="1276" type="line"/>
      <point x="575" y="1276" type="line"/>
      <point x="807" y="1649" type="line"/>
      <point x="629" y="1649" type="line"/>
      <point x="468" y="1423" type="line"/>
      <point x="325" y="1649" type="line"/>
      <point x="150" y="1649" type="line"/>
    </contour>
    <contour>
      <point x="468" y="1101" type="move" name="_top"/>
    </contour>
    <contour>
      <point x="482.5" y="1082" type="move" name="_top"/>
    </contour>
  </outline>
</glyph>
<glyph name="breve" format="1">
  <advance width="880"/>
  <unicode hex="02D8"/>
  <outline>
    <contour>
      <point x="518" y="1209" type="curve" smooth="yes"/>
      <point x="667" y="1209"/>
      <point x="785" y="1288"/>
      <point x="785" y="1466" type="curve"/>
      <point x="638" y="1466" type="line"/>
      <point x="638" y="1384"/>
      <point x="593" y="1352"/>
      <point x="518" y="1352" type="curve" smooth="yes"/>
      <point x="443" y="1352"/>
      <point x="400" y="1384"/>
      <point x="400" y="1466" type="curve"/>
      <point x="252" y="1466" type="line"/>
      <point x="252" y="1289"/>
      <point x="370" y="1209"/>
    </contour>
    <contour>
      <point x="0" y="1082" type="move" name="_top"/>
    </contour>
  </outline>
</glyph>
<glyph name="dotaccent" format="1">
  <advance width="624"/>
  <unicode hex="02D9"/>
  <outline>
    <contour>
      <point x="226" y="1276" type="line"/>
      <point x="413" y="1276" type="line"/>
      <point x="413" y="1486" type="line"/>
      <point x="226" y="1486" type="line"/>
    </contour>
    <contour>
      <point x="324" y="1082" type="move" name="_top"/>
    </contour>
  </outline>
</glyph>
<glyph name="ring" format="1">
  <advance width="795"/>
  <unicode hex="02DA"/>
  <outline>
    <contour>
      <point x="458" y="1086" type="curve" smooth="yes"/>
      <point x="583" y="1086"/>
      <point x="665" y="1180"/>
      <point x="665" y="1288" type="curve" smooth="yes"/>
      <point x="665" y="1396"/>
      <point x="585" y="1489"/>
      <point x="458" y="1489" type="curve" smooth="yes"/>
      <point x="332" y="1489"/>
      <point x="252" y="1397"/>
      <point x="252" y="1288" type="curve" smooth="yes"/>
      <point x="252" y="1180"/>
      <point x="333" y="1086"/>
    </contour>
    <contour>
      <point x="458" y="1183" type="curve" smooth="yes"/>
      <point x="398" y="1183"/>
      <point x="365" y="1230"/>
      <point x="365" y="1287" type="curve" smooth="yes"/>
      <point x="365" y="1341"/>
      <point x="401" y="1391"/>
      <point x="458" y="1391" type="curve" smooth="yes"/>
      <point x="516" y="1391"/>
      <point x="553" y="1341"/>
      <point x="553" y="1287" type="curve" smooth="yes"/>
      <point x="553" y="1231"/>
      <point x="516" y="1183"/>
    </contour>
    <contour>
      <point x="0" y="1082" type="move" name="_top"/>
    </contour>
  </outline>
</glyph>
<glyph name="ogonek" format="1">
  <advance width="766"/>
  <unicode hex="02DB"/>
  <outline>
    <contour>
      <point x="623" y="-395" type="curve"/>
      <point x="618" y="-261" type="line" smooth="yes"/>
      <point x="602" y="-269"/>
      <point x="547" y="-291"/>
      <point x="496" y="-291" type="curve" smooth="yes"/>
      <point x="453" y="-291"/>
      <point x="420" y="-259"/>
      <point x="420" y="-213" type="curve" smooth="yes"/>
      <point x="420" y="-145"/>
      <point x="478" y="-46"/>
      <point x="549" y="9" type="curve"/>
      <point x="448" y="9" type="line"/>
      <point x="359" y="-34"/>
      <point x="252" y="-134"/>
      <point x="252" y="-260" type="curve" smooth="yes"/>
      <point x="252" y="-371"/>
      <point x="335" y="-430"/>
      <point x="453" y="-430" type="curve" smooth="yes"/>
      <point x="511" y="-430"/>
      <point x="575" y="-415"/>
    </contour>
    <contour>
      <point x="510.666666667" y="0" type="move" name="_ogonek"/>
    </contour>
  </outline>
</glyph>
<glyph name="tilde" format="1">
  <advance width="937"/>
  <unicode hex="02DC"/>
  <outline>
    <contour>
      <point x="264" y="1227" type="line"/>
      <point x="277" y="1299"/>
      <point x="301" y="1326"/>
      <point x="336" y="1326" type="curve" smooth="yes"/>
      <point x="405" y="1326"/>
      <point x="513" y="1227"/>
      <point x="622" y="1227" type="curve" smooth="yes"/>
      <point x="741" y="1227"/>
      <point x="793" y="1339"/>
      <point x="793" y="1465" type="curve"/>
      <point x="678" y="1465" type="line"/>
      <point x="666" y="1401"/>
      <point x="646" y="1381"/>
      <point x="617" y="1381" type="curve" smooth="yes"/>
      <point x="558" y="1381"/>
      <point x="464" y="1466"/>
      <point x="336" y="1466" type="curve" smooth="yes"/>
      <point x="205" y="1466"/>
      <point x="150" y="1358"/>
      <point x="150" y="1227" type="curve"/>
    </contour>
    <contour>
      <point x="486" y="1082" type="move" name="_top"/>
    </contour>
  </outline>
</glyph>
<glyph name="hungarumlaut" format="1">
  <advance width="937"/>
  <unicode hex="02DD"/>
  <outline>
    <contour>
      <point x="525" y="1556" type="line"/>
      <point x="649" y="1556" type="line"/>
      <point x="961" y="1967" type="line"/>
      <point x="749" y="1967" type="line"/>
    </contour>
    <contour>
      <point x="254" y="1556" type="line"/>
      <point x="378" y="1556" type="line"/>
      <point x="668" y="1967" type="line"/>
      <point x="462" y="1967" type="line"/>
    </contour>
    <contour>
      <point x="468.5" y="1082" type="move" name="_top"/>
    </contour>
  </outline>
</glyph>
<glyph name="uni030F" format="1">
  <advance width="852"/>
  <unicode hex="030F"/>
  <outline>
    <contour>
      <point x="736" y="1152" type="line"/>
      <point x="631" y="1152" type="line"/>
      <point x="500" y="1467" type="line"/>
      <point x="644" y="1467" type="line"/>
    </contour>
    <contour>
      <point x="543" y="1152" type="line"/>
      <point x="435" y="1152" type="line"/>
      <point x="252" y="1467" type="line"/>
      <point x="408" y="1467" type="line"/>
    </contour>
    <contour>
      <point x="426.0" y="1082" type="move" name="_top"/>
    </contour>
  </outline>
</glyph>
<glyph name="uni031B" format="1">
  <advance width="681"/>
  <unicode hex="031B"/>
  <outline>
    <contour>
      <point x="318" y="520" type="line"/>
      <point x="332" y="484"/>
      <point x="342" y="442"/>
      <point x="342" y="403" type="curve" smooth="yes"/>
      <point x="342" y="338"/>
      <point x="315" y="272"/>
      <point x="221" y="272" type="curve" smooth="yes"/>
      <point x="207" y="272" type="line"/>
      <point x="207" y="173" type="line"/>
      <point x="227" y="171"/>
      <point x="246" y="169"/>
      <point x="265" y="169" type="curve" smooth="yes"/>
      <point x="417" y="169"/>
      <point x="469" y="254"/>
      <point x="469" y="353" type="curve" smooth="yes"/>
      <point x="469" y="405"/>
      <point x="453" y="465"/>
      <point x="429" y="520" type="curve"/>
    </contour>
  </outline>
</glyph>
<glyph name="Lambda" format="1">
  <advance width="1363"/>
  <unicode hex="039B"/>
  <outline>
    <contour>
      <point x="50" y="0" type="line"/>
      <point x="585" y="1502" type="line"/>
      <point x="771" y="1502" type="line"/>
      <point x="1306" y="0" type="line"/>
      <point x="1120" y="0" type="line"/>
      <point x="678" y="1290" type="line"/>
      <point x="241" y="0" type="line"/>
    </contour>
  </outline>
</glyph>
<glyph name="Pi" format="1">
  <advance width="1533"/>
  <unicode hex="03A0"/>
  <outline>
    <contour>
      <point x="197" y="0" type="line"/>
      <point x="197" y="1502" type="line"/>
      <point x="1339" y="1502" type="line"/>
      <point x="1339" y="0" type="line"/>
      <point x="1157" y="0" type="line"/>
      <point x="1157" y="1342" type="line"/>
      <point x="379" y="1342" type="line"/>
      <point x="379" y="0" type="line"/>
    </contour>
  </outline>
</glyph>
<glyph name="Sigma" format="1">
  <advance width="1192"/>
  <unicode hex="03A3"/>
  <outline>
    <contour>
      <point x="165" y="0" type="line"/>
      <point x="165" y="1480" type="line"/>
      <point x="1051" y="1480" type="line"/>
      <point x="1041" y="1282" type="line"/>
      <point x="411" y="1282" type="line"/>
      <point x="411" y="865" type="line"/>
      <point x="999" y="865" type="line"/>
      <point x="999" y="675" type="line"/>
      <point x="411" y="675" type="line"/>
      <point x="411" y="197" type="line"/>
      <point x="1056" y="197" type="line"/>
      <point x="1049" y="0" type="line"/>
    </contour>
  </outline>
</glyph>
<glyph name="Phi" format="1">
  <advance width="1675"/>
  <unicode hex="03A6"/>
  <outline>
    <contour>
      <point x="745" y="0" type="line"/>
      <point x="745" y="171" type="line"/>
      <point x="341" y="204"/>
      <point x="127" y="452"/>
      <point x="127" y="776" type="curve" smooth="yes"/>
      <point x="127" y="1104"/>
      <point x="352" y="1333"/>
      <point x="745" y="1364" type="curve"/>
      <point x="745" y="1502" type="line"/>
      <point x="926" y="1502" type="line"/>
      <point x="926" y="1364" type="line"/>
      <point x="1321" y="1335"/>
      <point x="1549" y="1106"/>
      <point x="1549" y="776" type="curve" smooth="yes"/>
      <point x="1549" y="452"/>
      <point x="1335" y="202"/>
      <point x="926" y="171" type="curve"/>
      <point x="926" y="0" type="line"/>
    </contour>
    <contour>
      <point x="745" y="336" type="curve"/>
      <point x="745" y="1199" type="line"/>
      <point x="462" y="1170"/>
      <point x="320" y="1010"/>
      <point x="320" y="776" type="curve" smooth="yes"/>
      <point x="320" y="551"/>
      <point x="449" y="368"/>
    </contour>
    <contour>
      <point x="926" y="336" type="line"/>
      <point x="1223" y="366"/>
      <point x="1355" y="549"/>
      <point x="1355" y="776" type="curve" smooth="yes"/>
      <point x="1355" y="1008"/>
      <point x="1214" y="1171"/>
      <point x="926" y="1199" type="curve"/>
    </contour>
  </outline>
</glyph>
<glyph name="Omega" format="1">
  <advance width="1618"/>
  <unicode hex="03A9"/>
  <outline>
    <contour>
      <point x="809" y="201" type="curve" smooth="yes"/>
      <point x="1084" y="201"/>
      <point x="1247" y="423"/>
      <point x="1247" y="739" type="curve" smooth="yes"/>
      <point x="1247" y="1063"/>
      <point x="1081" y="1285"/>
      <point x="809" y="1285" type="curve" smooth="yes"/>
      <point x="537" y="1285"/>
      <point x="368" y="1064"/>
      <point x="368" y="739" type="curve" smooth="yes"/>
      <point x="368" y="423"/>
      <point x="534" y="201"/>
    </contour>
    <contour>
      <point x="809" y="-20" type="curve" smooth="yes"/>
      <point x="378" y="-20"/>
      <point x="95" y="270"/>
      <point x="95" y="741" type="curve" smooth="yes"/>
      <point x="95" y="1219"/>
      <point x="382" y="1507"/>
      <point x="809" y="1507" type="curve" smooth="yes"/>
      <point x="1234" y="1507"/>
      <point x="1521" y="1218"/>
      <point x="1521" y="741" type="curve" smooth="yes"/>
      <point x="1521" y="273"/>
      <point x="1238" y="-20"/>
    </contour>
  </outline>
</glyph>
<glyph name="rho" format="1">
  <advance width="1221"/>
  <unicode hex="03C1"/>
  <outline>
    <contour>
      <point x="625" y="167" type="curve" smooth="yes"/>
      <point x="429" y="167"/>
      <point x="345" y="303"/>
      <point x="345" y="585" type="curve"/>
      <point x="346" y="836"/>
      <point x="437" y="964"/>
      <point x="624" y="964" type="curve" smooth="yes"/>
      <point x="799" y="964"/>
      <point x="898" y="825"/>
      <point x="898" y="569" type="curve" smooth="yes"/>
      <point x="898" y="314"/>
      <point x="798" y="167"/>
    </contour>
    <contour>
      <point x="118" y="-452" type="line"/>
      <point x="346" y="-441" type="line"/>
      <point x="346" y="-29" type="line" smooth="yes"/>
      <point x="346" y="20"/>
      <point x="344" y="78"/>
      <point x="341" y="140" type="curve"/>
      <point x="412" y="50"/>
      <point x="532" y="-12"/>
      <point x="666" y="-12" type="curve" smooth="yes"/>
      <point x="946" y="-12"/>
      <point x="1126" y="232"/>
      <point x="1126" y="564" type="curve" smooth="yes"/>
      <point x="1126" y="894"/>
      <point x="960" y="1143"/>
      <point x="676" y="1143" type="curve" smooth="yes"/>
      <point x="533" y="1143"/>
      <point x="401" y="1072"/>
      <point x="340" y="968" type="curve"/>
      <point x="319" y="1119" type="line"/>
      <point x="118" y="1119" type="line"/>
    </contour>
  </outline>
</glyph>
<glyph name="uni040A" format="1">
  <advance width="2101"/>
  <unicode hex="040A"/>
  <outline>
    <contour>
      <point x="1022" y="0" type="line"/>
      <point x="1543" y="0" type="line" smooth="yes"/>
      <point x="1872" y="0"/>
      <point x="2065" y="142"/>
      <point x="2065" y="429" type="curve" smooth="yes"/>
      <point x="2065" y="717"/>
      <point x="1890" y="854"/>
      <point x="1546" y="854" type="curve" smooth="yes"/>
      <point x="1198" y="854" type="line"/>
      <point x="1274" y="776" type="line"/>
      <point x="1275" y="1477" type="line"/>
      <point x="1022" y="1477" type="line"/>
      <point x="1022" y="785" type="line"/>
      <point x="1095" y="854" type="line"/>
      <point x="309" y="854" type="line"/>
      <point x="386" y="785" type="line"/>
      <point x="386" y="1477" type="line"/>
      <point x="133" y="1477" type="line"/>
      <point x="133" y="0" type="line"/>
      <point x="386" y="0" type="line"/>
      <point x="386" y="735" type="line"/>
      <point x="309" y="664" type="line"/>
      <point x="1100" y="664" type="line"/>
      <point x="1022" y="735" type="line"/>
    </contour>
    <contour>
      <point x="1275" y="89" type="line"/>
      <point x="1275" y="743" type="line"/>
      <point x="1199" y="664" type="line"/>
      <point x="1533" y="664" type="line" smooth="yes"/>
      <point x="1731" y="664"/>
      <point x="1815" y="605"/>
      <point x="1815" y="430" type="curve" smooth="yes"/>
      <point x="1815" y="254"/>
      <point x="1711" y="192"/>
      <point x="1518" y="192" type="curve" smooth="yes"/>
      <point x="1190" y="192" type="line"/>
    </contour>
  </outline>
</glyph>
<glyph name="uni040B" format="1">
  <advance width="1846"/>
  <unicode hex="040B"/>
  <outline>
    <contour>
      <point x="1513" y="0" type="line"/>
      <point x="1513" y="420" type="line" smooth="yes"/>
      <point x="1513" y="655"/>
      <point x="1401" y="727"/>
      <point x="1188" y="727" type="curve" smooth="yes"/>
      <point x="874" y="727" type="line"/>
      <point x="874" y="0" type="line"/>
      <point x="749" y="0" type="line"/>
      <point x="749" y="1419" type="line"/>
      <point x="292" y="1419" type="line"/>
      <point x="292" y="1511" type="line"/>
      <point x="1337" y="1511" type="line"/>
      <point x="1337" y="1419" type="line"/>
      <point x="874" y="1419" type="line"/>
      <point x="874" y="825" type="line"/>
      <point x="1186" y="825" type="line" smooth="yes"/>
      <point x="1500" y="825"/>
      <point x="1638" y="686"/>
      <point x="1638" y="421" type="curve" smooth="yes"/>
      <point x="1638" y="0" type="line"/>
    </contour>
  </outline>
</glyph>
<glyph name="uni040F" format="1">
  <advance width="1533"/>
  <unicode hex="040F"/>
  <outline>
    <contour>
      <point x="1311" y="1517" type="line"/>
      <point x="1311" y="7" type="line"/>
      <point x="216" y="7" type="line"/>
      <point x="216" y="1517" type="line"/>
      <point x="340" y="1517" type="line"/>
      <point x="340" y="60" type="line"/>
      <point x="279" y="98" type="line"/>
      <point x="1243" y="98" type="line"/>
      <point x="1187" y="60" type="line"/>
      <point x="1187" y="1517" type="line"/>
    </contour>
    <contour>
      <point x="719" y="-300" type="line"/>
      <point x="719" y="40" type="line"/>
      <point x="844" y="40" type="line"/>
      <point x="844" y="-300" type="line"/>
    </contour>
  </outline>
</glyph>
<glyph name="uni0411" format="1">
  <advance width="1334"/>
  <unicode hex="0411"/>
  <outline>
    <contour>
      <point x="152" y="0" type="line"/>
      <point x="701" y="0" type="line" smooth="yes"/>
      <point x="1030" y="0"/>
      <point x="1220" y="146"/>
      <point x="1220" y="433" type="curve" smooth="yes"/>
      <point x="1220" y="722"/>
      <point x="1047" y="863"/>
      <point x="703" y="863" type="curve" smooth="yes"/>
      <point x="316" y="863" type="line"/>
      <point x="405" y="787" type="line"/>
      <point x="405" y="1378" type="line"/>
      <point x="328" y="1297" type="line"/>
      <point x="1068" y="1297" type="line"/>
      <point x="1068" y="1489" type="line"/>
      <point x="152" y="1489" type="line"/>
    </contour>
    <contour>
      <point x="405" y="92" type="line"/>
      <point x="405" y="748" type="line"/>
      <point x="316" y="667" type="line"/>
      <point x="690" y="667" type="line" smooth="yes"/>
      <point x="886" y="667"/>
      <point x="966" y="606"/>
      <point x="966" y="431" type="curve" smooth="yes"/>
      <point x="966" y="255"/>
      <point x="864" y="195"/>
      <point x="675" y="195" type="curve" smooth="yes"/>
      <point x="322" y="195" type="line"/>
    </contour>
  </outline>
</glyph>
<glyph name="uni0414" format="1">
  <advance width="1420"/>
  <unicode hex="0414"/>
  <outline>
    <contour>
      <point x="-44" y="-300" type="line"/>
      <point x="-44" y="99" type="line"/>
      <point x="114" y="99" type="line"/>
      <point x="208" y="166"/>
      <point x="251" y="399"/>
      <point x="308" y="1143" type="curve"/>
      <point x="335" y="1516" type="line"/>
      <point x="1181" y="1516" type="line"/>
      <point x="1181" y="99" type="line"/>
      <point x="1316" y="99" type="line"/>
      <point x="1316" y="-300" type="line"/>
      <point x="1205" y="-300" type="line"/>
      <point x="1205" y="7" type="line"/>
      <point x="64" y="7" type="line"/>
      <point x="64" y="-300" type="line"/>
    </contour>
    <contour>
      <point x="225" y="41" type="curve"/>
      <point x="189" y="99" type="line"/>
      <point x="1097" y="99" type="line"/>
      <point x="1057" y="99" type="line"/>
      <point x="1056" y="1485" type="line"/>
      <point x="1118" y="1425" type="line"/>
      <point x="388" y="1424" type="line"/>
      <point x="453" y="1470" type="line"/>
      <point x="424" y="1132" type="line"/>
      <point x="383" y="610"/>
      <point x="354" y="172"/>
    </contour>
  </outline>
</glyph>
<glyph name="uni041B" format="1">
  <advance width="1590"/>
  <unicode hex="041B"/>
  <outline>
    <contour>
      <point x="-44" y="-25" type="line"/>
      <point x="52" y="-25" type="line" smooth="yes"/>
      <point x="359" y="-25"/>
      <point x="504" y="146"/>
      <point x="504" y="477" type="curve" smooth="yes"/>
      <point x="504" y="1356" type="line"/>
      <point x="428" y="1285" type="line"/>
      <point x="1244" y="1285" type="line"/>
      <point x="1165" y="1356" type="line"/>
      <point x="1165" y="1" type="line"/>
      <point x="1418" y="0" type="line"/>
      <point x="1418" y="1477" type="line"/>
      <point x="251" y="1477" type="line"/>
      <point x="251" y="459" type="line" smooth="yes"/>
      <point x="251" y="309"/>
      <point x="212" y="181"/>
      <point x="27" y="181" type="curve" smooth="yes"/>
      <point x="-44" y="181" type="line"/>
    </contour>
  </outline>
</glyph>
<glyph name="uni041F" format="1">
  <advance width="1533"/>
  <unicode hex="041F"/>
  <outline>
    <contour>
      <point x="165" y="0" type="line"/>
      <point x="418" y="0" type="line"/>
      <point x="418" y="1355" type="line"/>
      <point x="342" y="1285" type="line"/>
      <point x="1176" y="1285" type="line"/>
      <point x="1097" y="1355" type="line"/>
      <point x="1097" y="0" type="line"/>
      <point x="1350" y="0" type="line"/>
      <point x="1350" y="1477" type="line"/>
      <point x="165" y="1477" type="line"/>
    </contour>
  </outline>
</glyph>
<glyph name="uni0423" format="1">
  <advance width="1079"/>
  <unicode hex="0423"/>
  <outline>
    <contour>
      <point x="253" y="0" type="line"/>
      <point x="522" y="558" type="line"/>
      <point x="539" y="473" type="line"/>
      <point x="-6" y="1501" type="line"/>
      <point x="106" y="1501" type="line"/>
      <point x="592" y="575" type="line"/>
      <point x="548" y="608" type="line"/>
      <point x="951" y="1501" type="line"/>
      <point x="1069" y="1501" type="line"/>
      <point x="371" y="0" type="line"/>
    </contour>
  </outline>
</glyph>
<glyph name="uni0424" format="1">
  <advance width="1760"/>
  <unicode hex="0424"/>
  <outline>
    <contour>
      <point x="765" y="0" type="line"/>
      <point x="975" y="0" type="line"/>
      <point x="975" y="143" type="line"/>
      <point x="1378" y="165"/>
      <point x="1646" y="390"/>
      <point x="1646" y="752" type="curve" smooth="yes"/>
      <point x="1646" y="1111"/>
      <point x="1376" y="1335"/>
      <point x="975" y="1354" type="curve"/>
      <point x="975" y="1484" type="line"/>
      <point x="765" y="1484" type="line"/>
      <point x="764" y="1353" type="line"/>
      <point x="357" y="1328"/>
      <point x="101" y="1097"/>
      <point x="101" y="752" type="curve" smooth="yes"/>
      <point x="101" y="403"/>
      <point x="359" y="169"/>
      <point x="764" y="143" type="curve"/>
    </contour>
    <contour>
      <point x="764" y="339" type="line"/>
      <point x="469" y="364"/>
      <point x="328" y="529"/>
      <point x="328" y="751" type="curve" smooth="yes"/>
      <point x="328" y="969"/>
      <point x="470" y="1133"/>
      <point x="764" y="1158" type="curve"/>
    </contour>
    <contour>
      <point x="975" y="338" type="curve"/>
      <point x="975" y="1158" type="line"/>
      <point x="1280" y="1135"/>
      <point x="1420" y="970"/>
      <point x="1420" y="751" type="curve" smooth="yes"/>
      <point x="1420" y="528"/>
      <point x="1278" y="361"/>
    </contour>
  </outline>
</glyph>
<glyph name="uni0428" format="1">
  <advance width="1760"/>
  <unicode hex="0428"/>
  <outline>
    <contour>
      <point x="159" y="0" type="line"/>
      <point x="1593" y="0" type="line"/>
      <point x="1593" y="1489" type="line"/>
      <point x="1362" y="1489" type="line"/>
      <point x="1362" y="184" type="line"/>
      <point x="998" y="184" type="line"/>
      <point x="998" y="1489" type="line"/>
      <point x="768" y="1489" type="line"/>
      <point x="768" y="184" type="line"/>
      <point x="389" y="184" type="line"/>
      <point x="389" y="1489" type="line"/>
      <point x="159" y="1489" type="line"/>
    </contour>
  </outline>
</glyph>
<glyph name="uni0429" format="1">
  <advance width="1760"/>
  <unicode hex="0429"/>
  <outline>
    <contour>
      <point x="1502" y="-311" type="line"/>
      <point x="1708" y="-311" type="line"/>
      <point x="1708" y="147" type="line"/>
      <point x="1586" y="147" type="line"/>
      <point x="1586" y="1496" type="line"/>
      <point x="1355" y="1496" type="line"/>
      <point x="1355" y="191" type="line"/>
      <point x="991" y="191" type="line"/>
      <point x="991" y="1496" type="line"/>
      <point x="761" y="1496" type="line"/>
      <point x="761" y="191" type="line"/>
      <point x="382" y="191" type="line"/>
      <point x="382" y="1496" type="line"/>
      <point x="152" y="1496" type="line"/>
      <point x="152" y="7" type="line"/>
      <point x="1502" y="7" type="line"/>
    </contour>
  </outline>
</glyph>
<glyph name="uni042A" format="1">
  <advance width="1363"/>
  <unicode hex="042A"/>
  <outline>
    <contour>
      <point x="219" y="0" type="line"/>
      <point x="734" y="0" type="line" smooth="yes"/>
      <point x="1063" y="0"/>
      <point x="1253" y="146"/>
      <point x="1253" y="433" type="curve" smooth="yes"/>
      <point x="1253" y="722"/>
      <point x="1081" y="863"/>
      <point x="737" y="863" type="curve" smooth="yes"/>
      <point x="383" y="863" type="line"/>
      <point x="472" y="787" type="line"/>
      <point x="473" y="1476" type="line"/>
      <point x="-30" y="1476" type="line"/>
      <point x="-31" y="1285" type="line"/>
      <point x="306" y="1285" type="line"/>
      <point x="219" y="1368" type="line"/>
    </contour>
    <contour>
      <point x="472" y="92" type="line"/>
      <point x="472" y="751" type="line"/>
      <point x="382" y="669" type="line"/>
      <point x="724" y="669" type="line" smooth="yes"/>
      <point x="920" y="669"/>
      <point x="1000" y="609"/>
      <point x="1000" y="434" type="curve" smooth="yes"/>
      <point x="1000" y="259"/>
      <point x="897" y="195"/>
      <point x="708" y="195" type="curve" smooth="yes"/>
      <point x="388" y="195" type="line"/>
    </contour>
  </outline>
</glyph>
<glyph name="uni042B" format="1">
  <advance width="1789"/>
  <unicode hex="042B"/>
  <outline>
    <contour>
      <point x="1424" y="0" type="line"/>
      <point x="1424" y="1511" type="line"/>
      <point x="1549" y="1511" type="line"/>
      <point x="1549" y="0" type="line"/>
    </contour>
    <contour>
      <point x="203" y="0" type="line"/>
      <point x="203" y="1509" type="line"/>
      <point x="327" y="1509" type="line"/>
      <point x="327" y="810" type="line"/>
      <point x="281" y="854" type="line"/>
      <point x="679" y="854" type="line" smooth="yes"/>
      <point x="1081" y="854"/>
      <point x="1166" y="655"/>
      <point x="1166" y="433" type="curve" smooth="yes"/>
      <point x="1166" y="201"/>
      <point x="1090" y="0"/>
      <point x="686" y="0" type="curve" smooth="yes"/>
    </contour>
    <contour>
      <point x="327" y="43" type="line"/>
      <point x="279" y="98" type="line"/>
      <point x="692" y="98" type="line" smooth="yes"/>
      <point x="947" y="98"/>
      <point x="1042" y="197"/>
      <point x="1042" y="429" type="curve" smooth="yes"/>
      <point x="1042" y="666"/>
      <point x="955" y="756"/>
      <point x="678" y="756" type="curve" smooth="yes"/>
      <point x="279" y="756" type="line"/>
      <point x="327" y="790" type="line"/>
    </contour>
  </outline>
</glyph>
<glyph name="uni042C" format="1">
  <advance width="1334"/>
  <unicode hex="042C"/>
  <outline>
    <contour>
      <point x="152" y="0" type="line"/>
      <point x="688" y="0" type="line" smooth="yes"/>
      <point x="1017" y="0"/>
      <point x="1207" y="146"/>
      <point x="1207" y="433" type="curve" smooth="yes"/>
      <point x="1207" y="722"/>
      <point x="1034" y="863"/>
      <point x="690" y="863" type="curve" smooth="yes"/>
      <point x="316" y="863" type="line"/>
      <point x="405" y="787" type="line"/>
      <point x="406" y="1476" type="line"/>
      <point x="152" y="1475" type="line"/>
    </contour>
    <contour>
      <point x="405" y="92" type="line"/>
      <point x="405" y="751" type="line"/>
      <point x="316" y="669" type="line"/>
      <point x="677" y="669" type="line" smooth="yes"/>
      <point x="873" y="669"/>
      <point x="953" y="609"/>
      <point x="953" y="434" type="curve" smooth="yes"/>
      <point x="953" y="259"/>
      <point x="851" y="195"/>
      <point x="662" y="195" type="curve" smooth="yes"/>
      <point x="322" y="195" type="line"/>
    </contour>
  </outline>
</glyph>
<glyph name="uni0431" format="1">
  <advance width="1164"/>
  <unicode hex="0431"/>
  <outline>
    <contour>
      <point x="599" y="-20" type="curve" smooth="yes"/>
      <point x="86" y="-20"/>
      <point x="141" y="553"/>
      <point x="141" y="543" type="curve"/>
      <point x="141" y="955"/>
      <point x="314" y="1225"/>
      <point x="934" y="1262" type="curve"/>
      <point x="931" y="1182" type="line"/>
      <point x="658" y="1166"/>
      <point x="340" y="1125"/>
      <point x="258" y="715" type="curve"/>
      <point x="407" y="787"/>
      <point x="450" y="854"/>
      <point x="642" y="854" type="curve" smooth="yes"/>
      <point x="889" y="854"/>
      <point x="1000" y="597"/>
      <point x="1000" y="437" type="curve" smooth="yes"/>
      <point x="1000" y="201"/>
      <point x="853" y="-20"/>
    </contour>
    <contour>
      <point x="595" y="75" type="curve" smooth="yes"/>
      <point x="843" y="75"/>
      <point x="914" y="203"/>
      <point x="914" y="453" type="curve" smooth="yes"/>
      <point x="914" y="624"/>
      <point x="804" y="778"/>
      <point x="642" y="778" type="curve" smooth="yes"/>
      <point x="589" y="778"/>
      <point x="426" y="764"/>
      <point x="276" y="614" type="curve"/>
      <point x="223" y="201"/>
      <point x="443" y="75"/>
    </contour>
  </outline>
</glyph>
<glyph name="uni0432" format="1">
  <advance width="1136"/>
  <unicode hex="0432"/>
  <outline>
    <contour>
      <point x="169" y="0" type="line"/>
      <point x="169" y="1100" type="line"/>
      <point x="625" y="1100" type="line" smooth="yes"/>
      <point x="904" y="1100"/>
      <point x="976" y="950"/>
      <point x="976" y="823" type="curve" smooth="yes"/>
      <point x="976" y="695"/>
      <point x="910" y="619"/>
      <point x="803" y="586" type="curve"/>
      <point x="971" y="539"/>
      <point x="1012" y="407"/>
      <point x="1012" y="314" type="curve" smooth="yes"/>
      <point x="1012" y="182"/>
      <point x="956" y="0"/>
      <point x="623" y="0" type="curve" smooth="yes"/>
    </contour>
    <contour>
      <point x="293" y="89" type="line"/>
      <point x="618" y="89" type="line" smooth="yes"/>
      <point x="857" y="89"/>
      <point x="890" y="191"/>
      <point x="890" y="314" type="curve" smooth="yes"/>
      <point x="890" y="410"/>
      <point x="889" y="527"/>
      <point x="668" y="527" type="curve" smooth="yes"/>
      <point x="293" y="527" type="line"/>
    </contour>
    <contour>
      <point x="293" y="621" type="line"/>
      <point x="663" y="621" type="line" smooth="yes"/>
      <point x="829" y="621"/>
      <point x="854" y="726"/>
      <point x="854" y="818" type="curve" smooth="yes"/>
      <point x="854" y="930"/>
      <point x="805" y="1011"/>
      <point x="623" y="1011" type="curve" smooth="yes"/>
      <point x="293" y="1011" type="line"/>
    </contour>
  </outline>
</glyph>
<glyph name="uni0434" format="1">
  <advance width="1192"/>
  <unicode hex="0434"/>
  <outline>
    <contour>
      <point x="-8" y="-280" type="line"/>
      <point x="-8" y="86" type="line"/>
      <point x="93" y="86" type="line"/>
      <point x="177" y="110"/>
      <point x="198" y="189"/>
      <point x="236" y="296" type="curve"/>
      <point x="379" y="1108" type="line"/>
      <point x="997" y="1108" type="line"/>
      <point x="997" y="86" type="line"/>
      <point x="1059" y="86" type="line"/>
      <point x="1059" y="-280" type="line"/>
      <point x="953" y="-280" type="line"/>
      <point x="965" y="6" type="line"/>
      <point x="77" y="6" type="line"/>
      <point x="83" y="-280" type="line"/>
    </contour>
    <contour>
      <point x="229" y="83" type="curve"/>
      <point x="862" y="83" type="line"/>
      <point x="862" y="1036" type="line"/>
      <point x="472" y="1036" type="line"/>
      <point x="473" y="1065"/>
      <point x="370" y="396"/>
      <point x="372" y="416" type="curve"/>
      <point x="334" y="235"/>
      <point x="272" y="89"/>
    </contour>
  </outline>
</glyph>
<glyph name="uni0436" format="1">
  <advance width="1420"/>
  <unicode hex="0436"/>
  <outline>
    <contour>
      <point x="4" y="0" type="line"/>
      <point x="557" y="569" type="line"/>
      <point x="7" y="1102" type="line"/>
      <point x="115" y="1102" type="line"/>
      <point x="647" y="574" type="line"/>
      <point x="647" y="1102" type="line"/>
      <point x="779" y="1102" type="line"/>
      <point x="779" y="574" type="line"/>
      <point x="1315" y="1102" type="line"/>
      <point x="1421" y="1102" type="line"/>
      <point x="872" y="569" type="line"/>
      <point x="1424" y="0" type="line"/>
      <point x="1304" y="0" type="line"/>
      <point x="779" y="546" type="line"/>
      <point x="779" y="0" type="line"/>
      <point x="647" y="0" type="line"/>
      <point x="647" y="546" type="line"/>
      <point x="126" y="0" type="line"/>
    </contour>
  </outline>
</glyph>
<glyph name="uni0438" format="1">
  <advance width="1192"/>
  <unicode hex="0438"/>
  <outline>
    <contour>
      <point x="188" y="0" type="line"/>
      <point x="188" y="1100" type="line"/>
      <point x="290" y="1100" type="line"/>
      <point x="290" y="164" type="line"/>
      <point x="905" y="1008" type="line"/>
      <point x="905" y="1100" type="line"/>
      <point x="1010" y="1100" type="line"/>
      <point x="1010" y="0" type="line"/>
      <point x="905" y="0" type="line"/>
      <point x="905" y="846" type="line"/>
      <point x="289" y="0" type="line"/>
    </contour>
  </outline>
</glyph>
<glyph name="uni043A" format="1">
  <advance width="1079"/>
  <unicode hex="043A"/>
  <outline>
    <contour>
      <point x="175" y="0" type="line"/>
      <point x="175" y="1100" type="line"/>
      <point x="307" y="1100" type="line"/>
      <point x="307" y="570" type="line"/>
      <point x="783" y="1099" type="line"/>
      <point x="949" y="1101" type="line"/>
      <point x="447" y="551" type="line"/>
      <point x="1007" y="0" type="line"/>
      <point x="858" y="0" type="line"/>
      <point x="307" y="538" type="line"/>
      <point x="307" y="0" type="line"/>
    </contour>
  </outline>
</glyph>
<glyph name="uni043B" format="1">
  <advance width="1221"/>
  <unicode hex="043B"/>
  <outline>
    <contour>
      <point x="34" y="-7" type="curve"/>
      <point x="16" y="97" type="line"/>
      <point x="196" y="97"/>
      <point x="262" y="141"/>
      <point x="310" y="510" type="curve"/>
      <point x="377" y="1100" type="line"/>
      <point x="1038" y="1100" type="line"/>
      <point x="1038" y="-1" type="line"/>
      <point x="906" y="-1" type="line"/>
      <point x="906" y="1003" type="line"/>
      <point x="490" y="1003" type="line"/>
      <point x="427" y="498" type="line"/>
      <point x="377" y="67"/>
      <point x="287" y="-7"/>
    </contour>
  </outline>
</glyph>
<glyph name="uni043C" format="1">
  <advance width="1334"/>
  <unicode hex="043C"/>
  <outline>
    <contour>
      <point x="169" y="0" type="line"/>
      <point x="169" y="1100" type="line"/>
      <point x="280" y="1100" type="line"/>
      <point x="669" y="304" type="line"/>
      <point x="1054" y="1100" type="line"/>
      <point x="1162" y="1100" type="line"/>
      <point x="1162" y="0" type="line"/>
      <point x="1047" y="0" type="line"/>
      <point x="1047" y="853" type="line"/>
      <point x="714" y="169" type="line"/>
      <point x="621" y="169" type="line"/>
      <point x="284" y="853" type="line"/>
      <point x="284" y="0" type="line"/>
    </contour>
  </outline>
</glyph>
<glyph name="uni043D" format="1">
  <advance width="1249"/>
  <unicode hex="043D"/>
  <outline>
    <contour>
      <point x="182" y="0" type="line"/>
      <point x="182" y="1100" type="line"/>
      <point x="306" y="1100" type="line"/>
      <point x="306" y="634" type="line"/>
      <point x="936" y="634" type="line"/>
      <point x="936" y="1100" type="line"/>
      <point x="1060" y="1100" type="line"/>
      <point x="1060" y="0" type="line"/>
      <point x="936" y="0" type="line"/>
      <point x="936" y="535" type="line"/>
      <point x="306" y="535" type="line"/>
      <point x="306" y="0" type="line"/>
    </contour>
  </outline>
</glyph>
<glyph name="uni0442" format="1">
  <advance width="1022"/>
  <unicode hex="0442"/>
  <outline>
    <contour>
      <point x="442" y="0" type="line"/>
      <point x="442" y="994" type="line"/>
      <point x="137" y="994" type="line"/>
      <point x="137" y="1100" type="line"/>
      <point x="890" y="1100" type="line"/>
      <point x="890" y="994" type="line"/>
      <point x="580" y="994" type="line"/>
      <point x="580" y="0" type="line"/>
    </contour>
  </outline>
</glyph>
<glyph name="uni0443" format="1">
  <advance width="1107"/>
  <unicode hex="0443"/>
  <outline>
    <contour>
      <point x="203" y="-310" type="curve"/>
      <point x="203" y="-205" type="line"/>
      <point x="506" y="-205"/>
      <point x="545" y="-184"/>
      <point x="543" y="36" type="curve" smooth="yes"/>
      <point x="541" y="230" type="line"/>
      <point x="574" y="95" type="line"/>
      <point x="67" y="1106" type="line"/>
      <point x="194" y="1106" type="line"/>
      <point x="618" y="246" type="line"/>
      <point x="567" y="246" type="line"/>
      <point x="912" y="1106" type="line"/>
      <point x="1034" y="1106" type="line"/>
      <point x="632" y="103" type="line"/>
      <point x="655" y="237" type="line"/>
      <point x="657" y="34" type="line" smooth="yes"/>
      <point x="660" y="-249"/>
      <point x="620" y="-310"/>
    </contour>
  </outline>
</glyph>
<glyph name="uni0444" format="1">
  <advance width="1562"/>
  <unicode hex="0444"/>
  <outline>
    <contour>
      <point x="718" y="-389" type="line"/>
      <point x="718" y="92" type="line"/>
      <point x="656" y="63"/>
      <point x="569" y="54"/>
      <point x="497" y="54" type="curve" smooth="yes"/>
      <point x="291" y="54"/>
      <point x="124" y="268"/>
      <point x="124" y="573" type="curve" smooth="yes"/>
      <point x="124" y="877"/>
      <point x="271" y="1070"/>
      <point x="486" y="1070" type="curve" smooth="yes"/>
      <point x="553" y="1070"/>
      <point x="656" y="1049"/>
      <point x="718" y="1019" type="curve"/>
      <point x="718" y="1368" type="line"/>
      <point x="823" y="1368" type="line"/>
      <point x="823" y="1019" type="line"/>
      <point x="888" y="1050"/>
      <point x="980" y="1070"/>
      <point x="1052" y="1070" type="curve" smooth="yes"/>
      <point x="1266" y="1070"/>
      <point x="1417" y="878"/>
      <point x="1417" y="574" type="curve" smooth="yes"/>
      <point x="1417" y="271"/>
      <point x="1250" y="54"/>
      <point x="1042" y="54" type="curve" smooth="yes"/>
      <point x="970" y="54"/>
      <point x="883" y="63"/>
      <point x="823" y="92" type="curve"/>
      <point x="823" y="-389" type="line"/>
    </contour>
    <contour>
      <point x="503" y="149" type="curve" smooth="yes"/>
      <point x="569" y="149"/>
      <point x="653" y="156"/>
      <point x="718" y="190" type="curve"/>
      <point x="718" y="931" type="line"/>
      <point x="644" y="972"/>
      <point x="553" y="977"/>
      <point x="485" y="977" type="curve" smooth="yes"/>
      <point x="323" y="977"/>
      <point x="245" y="794"/>
      <point x="245" y="574" type="curve" smooth="yes"/>
      <point x="245" y="355"/>
      <point x="341" y="149"/>
    </contour>
    <contour>
      <point x="1038" y="149" type="curve" smooth="yes"/>
      <point x="1197" y="149"/>
      <point x="1297" y="354"/>
      <point x="1297" y="573" type="curve" smooth="yes"/>
      <point x="1297" y="794"/>
      <point x="1214" y="976"/>
      <point x="1054" y="976" type="curve" smooth="yes"/>
      <point x="982" y="976"/>
      <point x="895" y="965"/>
      <point x="823" y="924" type="curve"/>
      <point x="823" y="196" type="line"/>
      <point x="891" y="155"/>
      <point x="970" y="149"/>
    </contour>
  </outline>
</glyph>
<glyph name="uni0446" format="1">
  <advance width="1192"/>
  <unicode hex="0446"/>
  <outline>
    <contour>
      <point x="935" y="-280" type="line"/>
      <point x="950" y="6" type="line"/>
      <point x="175" y="6" type="line"/>
      <point x="175" y="1108" type="line"/>
      <point x="305" y="1108" type="line"/>
      <point x="305" y="87" type="line"/>
      <point x="871" y="87" type="line"/>
      <point x="871" y="1108" type="line"/>
      <point x="1002" y="1108" type="line"/>
      <point x="1002" y="147" type="line"/>
      <point x="1099" y="147" type="line"/>
      <point x="1099" y="-280" type="line"/>
    </contour>
  </outline>
</glyph>
<glyph name="uni0447" format="1">
  <advance width="1136"/>
  <unicode hex="0447"/>
  <outline>
    <contour>
      <point x="775" y="0" type="line"/>
      <point x="999" y="0" type="line"/>
      <point x="999" y="1109" type="line"/>
      <point x="775" y="1109" type="line"/>
      <point x="775" y="672" type="line"/>
      <point x="771" y="633"/>
      <point x="664" y="567"/>
      <point x="555" y="567" type="curve" smooth="yes"/>
      <point x="381" y="567"/>
      <point x="336" y="667"/>
      <point x="336" y="863" type="curve" smooth="yes"/>
      <point x="336" y="1109" type="line"/>
      <point x="112" y="1109" type="line"/>
      <point x="112" y="830" type="line" smooth="yes"/>
      <point x="112" y="521"/>
      <point x="251" y="388"/>
      <point x="524" y="386" type="curve" smooth="yes"/>
      <point x="617" y="386"/>
      <point x="736" y="412"/>
      <point x="775" y="452" type="curve"/>
    </contour>
  </outline>
</glyph>
<glyph name="uni0448" format="1">
  <advance width="1391"/>
  <unicode hex="0448"/>
  <outline>
    <contour>
      <point x="182" y="0" type="line"/>
      <point x="182" y="1100" type="line"/>
      <point x="307" y="1100" type="line"/>
      <point x="307" y="80" type="line"/>
      <point x="637" y="80" type="line"/>
      <point x="637" y="1100" type="line"/>
      <point x="744" y="1100" type="line"/>
      <point x="744" y="80" type="line"/>
      <point x="1072" y="80" type="line"/>
      <point x="1072" y="1100" type="line"/>
      <point x="1200" y="1100" type="line"/>
      <point x="1200" y="0" type="line"/>
    </contour>
  </outline>
</glyph>
<glyph name="uni0449" format="1">
  <advance width="1420"/>
  <unicode hex="0449"/>
  <outline>
    <contour>
      <point x="1182" y="-286" type="line"/>
      <point x="1193" y="6" type="line"/>
      <point x="169" y="6" type="line"/>
      <point x="169" y="1108" type="line"/>
      <point x="311" y="1108" type="line"/>
      <point x="311" y="87" type="line"/>
      <point x="665" y="87" type="line"/>
      <point x="665" y="1108" type="line"/>
      <point x="809" y="1108" type="line"/>
      <point x="809" y="87" type="line"/>
      <point x="1101" y="87" type="line"/>
      <point x="1101" y="1108" type="line"/>
      <point x="1245" y="1108" type="line"/>
      <point x="1245" y="146" type="line"/>
      <point x="1343" y="146" type="line"/>
      <point x="1343" y="-286" type="line"/>
    </contour>
  </outline>
</glyph>
<glyph name="uni044A" format="1">
  <advance width="1022"/>
  <unicode hex="044A"/>
  <outline>
    <contour>
      <point x="197" y="0" type="line"/>
      <point x="197" y="1020" type="line"/>
      <point x="48" y="1020" type="line"/>
      <point x="48" y="1100" type="line"/>
      <point x="328" y="1100" type="line"/>
      <point x="328" y="699" type="line"/>
      <point x="532" y="699" type="line" smooth="yes"/>
      <point x="840" y="699"/>
      <point x="898" y="511"/>
      <point x="898" y="362" type="curve" smooth="yes"/>
      <point x="898" y="202"/>
      <point x="829" y="0"/>
      <point x="534" y="0" type="curve" smooth="yes"/>
    </contour>
    <contour>
      <point x="327" y="89" type="line"/>
      <point x="549" y="89" type="line" smooth="yes"/>
      <point x="707" y="89"/>
      <point x="750" y="252"/>
      <point x="750" y="364" type="curve" smooth="yes"/>
      <point x="750" y="481"/>
      <point x="694" y="603"/>
      <point x="542" y="603" type="curve" smooth="yes"/>
      <point x="327" y="603" type="line"/>
    </contour>
  </outline>
</glyph>
<glyph name="uni044B" format="1">
  <advance width="1505"/>
  <unicode hex="044B"/>
  <outline>
    <contour>
      <point x="169" y="0" type="line"/>
      <point x="169" y="1100" type="line"/>
      <point x="293" y="1100" type="line"/>
      <point x="293" y="696" type="line"/>
      <point x="551" y="696" type="line" smooth="yes"/>
      <point x="860" y="696"/>
      <point x="926" y="508"/>
      <point x="926" y="360" type="curve" smooth="yes"/>
      <point x="926" y="200"/>
      <point x="859" y="0"/>
      <point x="553" y="0" type="curve" smooth="yes"/>
    </contour>
    <contour>
      <point x="292" y="89" type="line"/>
      <point x="557" y="89" type="line" smooth="yes"/>
      <point x="716" y="89"/>
      <point x="807" y="173"/>
      <point x="807" y="362" type="curve" smooth="yes"/>
      <point x="807" y="524"/>
      <point x="715" y="601"/>
      <point x="561" y="601" type="curve" smooth="yes"/>
      <point x="292" y="601" type="line"/>
    </contour>
    <contour>
      <point x="1188" y="0" type="line"/>
      <point x="1188" y="1100" type="line"/>
      <point x="1312" y="1100" type="line"/>
      <point x="1312" y="0" type="line"/>
    </contour>
  </outline>
</glyph>
<glyph name="uni044C" format="1">
  <advance width="1079"/>
  <unicode hex="044C"/>
  <outline>
    <contour>
      <point x="175" y="0" type="line"/>
      <point x="175" y="1100" type="line"/>
      <point x="299" y="1100" type="line"/>
      <point x="299" y="696" type="line"/>
      <point x="557" y="696" type="line" smooth="yes"/>
      <point x="866" y="696"/>
      <point x="932" y="508"/>
      <point x="932" y="360" type="curve" smooth="yes"/>
      <point x="932" y="200"/>
      <point x="865" y="0"/>
      <point x="559" y="0" type="curve" smooth="yes"/>
    </contour>
    <contour>
      <point x="298" y="89" type="line"/>
      <point x="563" y="89" type="line" smooth="yes"/>
      <point x="722" y="89"/>
      <point x="813" y="173"/>
      <point x="813" y="362" type="curve" smooth="yes"/>
      <point x="813" y="524"/>
      <point x="721" y="601"/>
      <point x="567" y="601" type="curve" smooth="yes"/>
      <point x="298" y="601" type="line"/>
    </contour>
  </outline>
</glyph>
<glyph name="uni044D" format="1">
  <advance width="1136"/>
  <unicode hex="044D"/>
  <outline>
    <contour>
      <point x="467" y="-29" type="curve" smooth="yes"/>
      <point x="326" y="-29"/>
      <point x="194" y="10"/>
      <point x="141" y="69" type="curve"/>
      <point x="172" y="151" type="line"/>
      <point x="283" y="86"/>
      <point x="377" y="67"/>
      <point x="460" y="67" type="curve" smooth="yes"/>
      <point x="709" y="67"/>
      <point x="871" y="253"/>
      <point x="887" y="494" type="curve"/>
      <point x="437" y="494" type="line"/>
      <point x="437" y="600" type="line"/>
      <point x="887" y="600" type="line"/>
      <point x="870" y="848"/>
      <point x="740" y="1040"/>
      <point x="455" y="1040" type="curve" smooth="yes"/>
      <point x="337" y="1040"/>
      <point x="251" y="1001"/>
      <point x="169" y="951" type="curve"/>
      <point x="131" y="1031" type="line"/>
      <point x="205" y="1099"/>
      <point x="350" y="1134"/>
      <point x="453" y="1134" type="curve" smooth="yes"/>
      <point x="878" y="1134"/>
      <point x="992" y="804"/>
      <point x="992" y="533" type="curve" smooth="yes"/>
      <point x="992" y="289"/>
      <point x="847" y="-29"/>
    </contour>
  </outline>
</glyph>
<glyph name="uni044E" format="1">
  <advance width="1533"/>
  <unicode hex="044E"/>
  <outline>
    <contour>
      <point x="935" y="-29" type="curve" smooth="yes"/>
      <point x="619" y="-29"/>
      <point x="492" y="200"/>
      <point x="487" y="504" type="curve"/>
      <point x="272" y="504" type="line"/>
      <point x="272" y="1" type="line"/>
      <point x="182" y="1" type="line"/>
      <point x="182" y="1100" type="line"/>
      <point x="272" y="1100" type="line"/>
      <point x="272" y="591" type="line"/>
      <point x="487" y="591" type="line"/>
      <point x="493" y="892"/>
      <point x="622" y="1134"/>
      <point x="940" y="1134" type="curve" smooth="yes"/>
      <point x="1285" y="1134"/>
      <point x="1372" y="870"/>
      <point x="1372" y="551" type="curve" smooth="yes"/>
      <point x="1372" y="247"/>
      <point x="1273" y="-29"/>
    </contour>
    <contour>
      <point x="940" y="67" type="curve" smooth="yes"/>
      <point x="1199" y="67"/>
      <point x="1267" y="305"/>
      <point x="1267" y="548" type="curve" smooth="yes"/>
      <point x="1267" y="799"/>
      <point x="1209" y="1038"/>
      <point x="935" y="1038" type="curve" smooth="yes"/>
      <point x="672" y="1038"/>
      <point x="596" y="785"/>
      <point x="596" y="542" type="curve" smooth="yes"/>
      <point x="596" y="305"/>
      <point x="675" y="67"/>
    </contour>
  </outline>
</glyph>
<glyph name="uni044F" format="1">
  <advance width="1136"/>
  <unicode hex="044F"/>
  <outline>
    <contour>
      <point x="164" y="0" type="line"/>
      <point x="368" y="458" type="line"/>
      <point x="169" y="508"/>
      <point x="105" y="669"/>
      <point x="105" y="784" type="curve" smooth="yes"/>
      <point x="105" y="931"/>
      <point x="202" y="1100"/>
      <point x="478" y="1100" type="curve" smooth="yes"/>
      <point x="942" y="1100" type="line"/>
      <point x="942" y="0" type="line"/>
      <point x="817" y="0" type="line"/>
      <point x="817" y="451" type="line"/>
      <point x="493" y="451" type="line"/>
      <point x="295" y="0" type="line"/>
    </contour>
    <contour>
      <point x="499" y="543" type="curve" smooth="yes"/>
      <point x="817" y="543" type="line"/>
      <point x="817" y="1010" type="line"/>
      <point x="478" y="1010" type="line" smooth="yes"/>
      <point x="263" y="1010"/>
      <point x="225" y="887"/>
      <point x="225" y="777" type="curve" smooth="yes"/>
      <point x="225" y="636"/>
      <point x="322" y="543"/>
    </contour>
  </outline>
</glyph>
<glyph name="uni0452" format="1">
  <advance width="1221"/>
  <unicode hex="0452"/>
  <outline>
    <contour>
      <point x="679" y="-286" type="line"/>
      <point x="668" y="-152" type="line"/>
      <point x="704" y="-152" type="line" smooth="yes"/>
      <point x="885" y="-152"/>
      <point x="907" y="-115"/>
      <point x="907" y="105" type="curve" smooth="yes"/>
      <point x="907" y="376" type="line" smooth="yes"/>
      <point x="907" y="631"/>
      <point x="874" y="761"/>
      <point x="676" y="761" type="curve" smooth="yes"/>
      <point x="495" y="761"/>
      <point x="351" y="616"/>
      <point x="322" y="506" type="curve"/>
      <point x="322" y="6" type="line"/>
      <point x="169" y="6" type="line"/>
      <point x="169" y="1123" type="line"/>
      <point x="74" y="1123" type="line"/>
      <point x="74" y="1229" type="line"/>
      <point x="169" y="1229" type="line"/>
      <point x="169" y="1533" type="line"/>
      <point x="322" y="1533" type="line"/>
      <point x="322" y="1229" type="line"/>
      <point x="747" y="1229" type="line"/>
      <point x="747" y="1123" type="line"/>
      <point x="322" y="1123" type="line"/>
      <point x="322" y="705" type="line"/>
      <point x="415" y="828"/>
      <point x="534" y="903"/>
      <point x="691" y="903" type="curve" smooth="yes"/>
      <point x="946" y="903"/>
      <point x="1062" y="744"/>
      <point x="1062" y="452" type="curve" smooth="yes"/>
      <point x="1062" y="160" type="line" smooth="yes"/>
      <point x="1062" y="-153"/>
      <point x="1041" y="-286"/>
      <point x="746" y="-286" type="curve" smooth="yes"/>
    </contour>
  </outline>
</glyph>
<glyph name="uni045A" format="1">
  <advance width="1618"/>
  <unicode hex="045A"/>
  <outline>
    <contour>
      <point x="118" y="0" type="line"/>
      <point x="341" y="0" type="line"/>
      <point x="341" y="497" type="line"/>
      <point x="775" y="497" type="line"/>
      <point x="775" y="0" type="line"/>
      <point x="1201" y="0" type="line" smooth="yes"/>
      <point x="1426" y="0"/>
      <point x="1559" y="151"/>
      <point x="1559" y="344" type="curve" smooth="yes"/>
      <point x="1559" y="557"/>
      <point x="1432" y="681"/>
      <point x="1202" y="681" type="curve" smooth="yes"/>
      <point x="995" y="681" type="line"/>
      <point x="995" y="1109" type="line"/>
      <point x="775" y="1109" type="line"/>
      <point x="775" y="680" type="line"/>
      <point x="341" y="680" type="line"/>
      <point x="341" y="1109" type="line"/>
      <point x="118" y="1109" type="line"/>
    </contour>
    <contour>
      <point x="995" y="174" type="line"/>
      <point x="995" y="516" type="line"/>
      <point x="1192" y="516" type="line" smooth="yes"/>
      <point x="1315" y="516"/>
      <point x="1370" y="442"/>
      <point x="1370" y="350" type="curve" smooth="yes"/>
      <point x="1370" y="254"/>
      <point x="1316" y="174"/>
      <point x="1193" y="174" type="curve" smooth="yes"/>
    </contour>
  </outline>
</glyph>
<glyph name="ellipsis" format="1">
  <advance width="1505"/>
  <unicode hex="2026"/>
  <outline>
    <contour>
      <point x="251" y="-12" type="curve" smooth="yes"/>
      <point x="163" y="-12"/>
      <point x="118" y="55"/>
      <point x="118" y="122" type="curve" smooth="yes"/>
      <point x="118" y="188"/>
      <point x="162" y="256"/>
      <point x="251" y="256" type="curve" smooth="yes"/>
      <point x="340" y="256"/>
      <point x="382" y="188"/>
      <point x="382" y="122" type="curve" smooth="yes"/>
      <point x="382" y="55"/>
      <point x="340" y="-12"/>
    </contour>
    <contour>
      <point x="742" y="-12" type="curve" smooth="yes"/>
      <point x="654" y="-12"/>
      <point x="610" y="55"/>
      <point x="610" y="122" type="curve" smooth="yes"/>
      <point x="610" y="188"/>
      <point x="653" y="256"/>
      <point x="742" y="256" type="curve" smooth="yes"/>
      <point x="831" y="256"/>
      <point x="874" y="188"/>
      <point x="874" y="122" type="curve" smooth="yes"/>
      <point x="874" y="55"/>
      <point x="831" y="-12"/>
    </contour>
    <contour>
      <point x="1232" y="-12" type="curve" smooth="yes"/>
      <point x="1144" y="-12"/>
      <point x="1100" y="55"/>
      <point x="1100" y="122" type="curve" smooth="yes"/>
      <point x="1100" y="188"/>
      <point x="1143" y="256"/>
      <point x="1232" y="256" type="curve" smooth="yes"/>
      <point x="1321" y="256"/>
      <point x="1365" y="188"/>
      <point x="1365" y="122" type="curve" smooth="yes"/>
      <point x="1365" y="55"/>
      <point x="1321" y="-12"/>
    </contour>
  </outline>
</glyph>
<glyph name="perthousand" format="1">
  <advance width="1959"/>
  <unicode hex="2030"/>
  <outline>
    <contour>
      <point x="198" y="934" type="curve" smooth="yes"/>
      <point x="83" y="934"/>
      <point x="32" y="1049"/>
      <point x="32" y="1198" type="curve" smooth="yes"/>
      <point x="32" y="1339"/>
      <point x="82" y="1461"/>
      <point x="194" y="1461" type="curve" smooth="yes"/>
      <point x="308" y="1461"/>
      <point x="362" y="1346"/>
      <point x="362" y="1196" type="curve" smooth="yes"/>
      <point x="362" y="1055"/>
      <point x="308" y="934"/>
    </contour>
    <contour>
      <point x="194" y="808" type="curve" smooth="yes"/>
      <point x="382" y="808"/>
      <point x="490" y="975"/>
      <point x="490" y="1194" type="curve" smooth="yes"/>
      <point x="490" y="1432"/>
      <point x="389" y="1583"/>
      <point x="196" y="1583" type="curve" smooth="yes"/>
      <point x="9" y="1583"/>
      <point x="-95" y="1420"/>
      <point x="-95" y="1198" type="curve" smooth="yes"/>
      <point x="-95" y="965"/>
      <point x="9" y="808"/>
    </contour>
    <contour>
      <point x="50" y="-21" type="line"/>
      <point x="185" y="-21" type="line"/>
      <point x="1057" y="1571" type="line"/>
      <point x="901" y="1571" type="line"/>
    </contour>
    <contour>
      <point x="892" y="96" type="curve" smooth="yes"/>
      <point x="760" y="96"/>
      <point x="695" y="211"/>
      <point x="695" y="360" type="curve" smooth="yes"/>
      <point x="695" y="501"/>
      <point x="759" y="620"/>
      <point x="891" y="620" type="curve" smooth="yes"/>
      <point x="1028" y="620"/>
      <point x="1090" y="509"/>
      <point x="1090" y="360" type="curve" smooth="yes"/>
      <point x="1090" y="220"/>
      <point x="1024" y="96"/>
    </contour>
    <contour>
      <point x="890" y="-30" type="curve" smooth="yes"/>
      <point x="1109" y="-30"/>
      <point x="1217" y="138"/>
      <point x="1217" y="357" type="curve" smooth="yes"/>
      <point x="1217" y="593"/>
      <point x="1114" y="747"/>
      <point x="892" y="747" type="curve" smooth="yes"/>
      <point x="670" y="747"/>
      <point x="564" y="581"/>
      <point x="564" y="360" type="curve" smooth="yes"/>
      <point x="564" y="127"/>
      <point x="672" y="-30"/>
    </contour>
    <contour>
      <point x="1662" y="96" type="curve" smooth="yes"/>
      <point x="1525" y="96"/>
      <point x="1459" y="211"/>
      <point x="1459" y="360" type="curve" smooth="yes"/>
      <point x="1459" y="501"/>
      <point x="1523" y="620"/>
      <point x="1659" y="620" type="curve" smooth="yes"/>
      <point x="1790" y="620"/>
      <point x="1860" y="506"/>
      <point x="1860" y="360" type="curve" smooth="yes"/>
      <point x="1860" y="218"/>
      <point x="1794" y="96"/>
    </contour>
    <contour>
      <point x="1656" y="-30" type="curve" smooth="yes"/>
      <point x="1875" y="-30"/>
      <point x="1984" y="138"/>
      <point x="1984" y="357" type="curve" smooth="yes"/>
      <point x="1984" y="598"/>
      <point x="1880" y="747"/>
      <point x="1662" y="747" type="curve" smooth="yes"/>
      <point x="1441" y="747"/>
      <point x="1332" y="581"/>
      <point x="1332" y="360" type="curve" smooth="yes"/>
      <point x="1332" y="127"/>
      <point x="1440" y="-30"/>
    </contour>
  </outline>
</glyph>
<glyph name="Euro" format="1">
  <advance width="1391"/>
  <unicode hex="20AC"/>
  <outline>
    <contour>
      <point x="966" y="527" type="line"/>
      <point x="969" y="660" type="line"/>
      <point x="398" y="660" type="line"/>
      <point x="398" y="810" type="line"/>
      <point x="969" y="810" type="line"/>
      <point x="973" y="942" type="line"/>
      <point x="96" y="942" type="line"/>
      <point x="93" y="810" type="line"/>
      <point x="265" y="810" type="line"/>
      <point x="265" y="660" type="line"/>
      <point x="93" y="660" type="line"/>
      <point x="90" y="527" type="line"/>
    </contour>
    <component base="C" xOffset="-57.282345"/>
  </outline>
</glyph>
<glyph name="trademark" format="1">
  <advance width="1618"/>
  <unicode hex="2122"/>
  <outline>
    <contour>
      <point x="651" y="619" type="line"/>
      <point x="792" y="619" type="line"/>
      <point x="792" y="1234" type="line"/>
      <point x="1015" y="663" type="line"/>
      <point x="1114" y="663" type="line"/>
      <point x="1350" y="1238" type="line"/>
      <point x="1350" y="619" type="line"/>
      <point x="1491" y="619" type="line"/>
      <point x="1491" y="1476" type="line"/>
      <point x="1316" y="1476" type="line"/>
      <point x="1071" y="872" type="line"/>
      <point x="838" y="1476" type="line"/>
      <point x="651" y="1476" type="line"/>
    </contour>
    <contour>
      <point x="178" y="619" type="line"/>
      <point x="321" y="619" type="line"/>
      <point x="321" y="1340" type="line"/>
      <point x="568" y="1340" type="line"/>
      <point x="568" y="1476" type="line"/>
      <point x="-65" y="1476" type="line"/>
      <point x="-65" y="1340" type="line"/>
      <point x="178" y="1340" type="line"/>
    </contour>
  </outline>
</glyph>
<glyph name="partialdiff" format="1">
  <advance width="1278"/>
  <unicode hex="2202"/>
  <outline>
    <contour>
      <point x="553" y="-28" type="curve" smooth="yes"/>
      <point x="279" y="-28"/>
      <point x="159" y="186"/>
      <point x="159" y="459" type="curve" smooth="yes"/>
      <point x="159" y="819"/>
      <point x="361" y="1094"/>
      <point x="648" y="1094" type="curve" smooth="yes"/>
      <point x="785" y="1094"/>
      <point x="890" y="1030"/>
      <point x="957" y="915" type="curve"/>
      <point x="957" y="934"/>
      <point x="958" y="966"/>
      <point x="958" y="995" type="curve" smooth="yes"/>
      <point x="958" y="1325"/>
      <point x="843" y="1530"/>
      <point x="628" y="1530" type="curve" smooth="yes"/>
      <point x="526" y="1530"/>
      <point x="426" y="1485"/>
      <point x="346" y="1427" type="curve"/>
      <point x="333" y="1577" type="line"/>
      <point x="416" y="1635"/>
      <point x="530" y="1677"/>
      <point x="652" y="1677" type="curve" smooth="yes"/>
      <point x="948" y="1677"/>
      <point x="1109" y="1443"/>
      <point x="1109" y="931" type="curve" smooth="yes"/>
      <point x="1109" y="459"/>
      <point x="945" y="-28"/>
    </contour>
    <contour>
      <point x="554" y="121" type="curve" smooth="yes"/>
      <point x="769" y="121"/>
      <point x="912" y="390"/>
      <point x="944" y="717" type="curve"/>
      <point x="909" y="840"/>
      <point x="817" y="950"/>
      <point x="674" y="950" type="curve" smooth="yes"/>
      <point x="468" y="950"/>
      <point x="305" y="724"/>
      <point x="305" y="458" type="curve" smooth="yes"/>
      <point x="305" y="255"/>
      <point x="402" y="121"/>
    </contour>
  </outline>
</glyph>
<glyph name="infinity" format="1">
  <advance width="1675"/>
  <unicode hex="221E"/>
  <outline>
    <contour>
      <point x="417" y="252" type="curve" smooth="yes"/>
      <point x="192" y="252"/>
      <point x="61" y="442"/>
      <point x="61" y="664" type="curve" smooth="yes"/>
      <point x="61" y="866"/>
      <point x="217" y="1027"/>
      <point x="413" y="1027" type="curve" smooth="yes"/>
      <point x="583" y="1027"/>
      <point x="709" y="916"/>
      <point x="831" y="751" type="curve"/>
      <point x="945" y="911"/>
      <point x="1071" y="1027"/>
      <point x="1244" y="1027" type="curve" smooth="yes"/>
      <point x="1469" y="1027"/>
      <point x="1595" y="867"/>
      <point x="1595" y="646" type="curve" smooth="yes"/>
      <point x="1595" y="414"/>
      <point x="1440" y="252"/>
      <point x="1242" y="252" type="curve" smooth="yes"/>
      <point x="1091" y="252"/>
      <point x="967" y="342"/>
      <point x="831" y="527" type="curve"/>
      <point x="712" y="366"/>
      <point x="583" y="252"/>
    </contour>
    <contour>
      <point x="419" y="381" type="curve" smooth="yes"/>
      <point x="551" y="381"/>
      <point x="666" y="499"/>
      <point x="760" y="640" type="curve"/>
      <point x="667" y="790"/>
      <point x="555" y="901"/>
      <point x="412" y="901" type="curve" smooth="yes"/>
      <point x="265" y="901"/>
      <point x="174" y="782"/>
      <point x="174" y="642" type="curve" smooth="yes"/>
      <point x="174" y="511"/>
      <point x="272" y="381"/>
    </contour>
    <contour>
      <point x="1244" y="381" type="curve" smooth="yes"/>
      <point x="1399" y="381"/>
      <point x="1473" y="509"/>
      <point x="1473" y="669" type="curve" smooth="yes"/>
      <point x="1473" y="795"/>
      <point x="1376" y="901"/>
      <point x="1240" y="901" type="curve" smooth="yes"/>
      <point x="1102" y="901"/>
      <point x="992" y="776"/>
      <point x="903" y="642" type="curve"/>
      <point x="1025" y="472"/>
      <point x="1118" y="381"/>
    </contour>
  </outline>
</glyph>
<glyph name="integral" format="1">
  <advance width="1022"/>
  <unicode hex="222B"/>
  <outline>
    <contour>
      <point x="405" y="-419" type="curve" smooth="yes"/>
      <point x="371" y="-419"/>
      <point x="334" y="-415"/>
      <point x="292" y="-406" type="curve"/>
      <point x="292" y="-310" type="line"/>
      <point x="329" y="-319"/>
      <point x="362" y="-323"/>
      <point x="390" y="-323" type="curve" smooth="yes"/>
      <point x="530" y="-323"/>
      <point x="549" y="-208"/>
      <point x="549" y="-42" type="curve" smooth="yes"/>
      <point x="549" y="1171" type="line" smooth="yes"/>
      <point x="549" y="1417"/>
      <point x="613" y="1541"/>
      <point x="787" y="1541" type="curve" smooth="yes"/>
      <point x="822" y="1541"/>
      <point x="861" y="1536"/>
      <point x="906" y="1526" type="curve"/>
      <point x="906" y="1430" type="line"/>
      <point x="869" y="1440"/>
      <point x="839" y="1446"/>
      <point x="811" y="1446" type="curve" smooth="yes"/>
      <point x="692" y="1446"/>
      <point x="667" y="1343"/>
      <point x="667" y="1180" type="curve" smooth="yes"/>
      <point x="667" y="-34" type="line" smooth="yes"/>
      <point x="667" y="-284"/>
      <point x="590" y="-419"/>
    </contour>
  </outline>
</glyph>
<glyph name="approxequal" format="1">
  <advance width="1221"/>
  <unicode hex="2248"/>
  <outline>
    <contour>
      <point x="87" y="556" type="line"/>
      <point x="125" y="702"/>
      <point x="218" y="803"/>
      <point x="372" y="803" type="curve" smooth="yes"/>
      <point x="461" y="803"/>
      <point x="548" y="764"/>
      <point x="629" y="721" type="curve" smooth="yes"/>
      <point x="710" y="677"/>
      <point x="772" y="645"/>
      <point x="830" y="645" type="curve" smooth="yes"/>
      <point x="910" y="645"/>
      <point x="967" y="697"/>
      <point x="1023" y="803" type="curve"/>
      <point x="1119" y="724" type="line"/>
      <point x="1081" y="586"/>
      <point x="981" y="478"/>
      <point x="820" y="478" type="curve" smooth="yes"/>
      <point x="732" y="478"/>
      <point x="656" y="511"/>
      <point x="552" y="569" type="curve"/>
      <point x="487" y="608"/>
      <point x="432" y="635"/>
      <point x="369" y="635" type="curve" smooth="yes"/>
      <point x="276" y="635"/>
      <point x="222" y="567"/>
      <point x="189" y="473" type="curve"/>
    </contour>
    <contour>
      <point x="86" y="395" type="line"/>
      <point x="125" y="540"/>
      <point x="219" y="641"/>
      <point x="373" y="641" type="curve" smooth="yes"/>
      <point x="460" y="641"/>
      <point x="544" y="604"/>
      <point x="629" y="558" type="curve" smooth="yes"/>
      <point x="715" y="511"/>
      <point x="774" y="485"/>
      <point x="829" y="485" type="curve" smooth="yes"/>
      <point x="909" y="485"/>
      <point x="965" y="536"/>
      <point x="1023" y="641" type="curve"/>
      <point x="1118" y="562" type="line"/>
      <point x="1080" y="424"/>
      <point x="979" y="318"/>
      <point x="820" y="318" type="curve" smooth="yes"/>
      <point x="730" y="318"/>
      <point x="655" y="350"/>
      <point x="551" y="409" type="curve"/>
      <point x="486" y="448"/>
      <point x="431" y="474"/>
      <point x="368" y="474" type="curve" smooth="yes"/>
      <point x="274" y="474"/>
      <point x="221" y="408"/>
      <point x="189" y="314" type="curve"/>
    </contour>
  </outline>
</glyph>
<glyph name="acute.cap" format="1">
  <advance width="738"/>
  <outline>
    <contour>
      <point x="296" y="1276" type="line"/>
      <point x="434" y="1276" type="line"/>
      <point x="743" y="1687" type="line"/>
      <point x="474" y="1687" type="line"/>
    </contour>
    <contour>
      <point x="369.0" y="1082" type="move" name="_top"/>
    </contour>
  </outline>
</glyph>
<glyph name="caron.cap" format="1">
  <advance width="965"/>
  <outline>
    <contour>
      <point x="394" y="1556" type="line"/>
      <point x="591" y="1556" type="line"/>
      <point x="823" y="1929" type="line"/>
      <point x="645" y="1929" type="line"/>
      <point x="484" y="1703" type="line"/>
      <point x="341" y="1929" type="line"/>
      <point x="166" y="1929" type="line"/>
    </contour>
    <contour>
      <point x="482.5" y="1082" type="move" name="_top"/>
    </contour>
  </outline>
</glyph>
<glyph name="circumflex.cap" format="1">
  <advance width="937"/>
  <outline>
    <contour>
      <point x="153" y="1276" type="line"/>
      <point x="313" y="1276" type="line"/>
      <point x="469" y="1438" type="line"/>
      <point x="633" y="1276" type="line"/>
      <point x="795" y="1276" type="line"/>
      <point x="577" y="1591" type="line"/>
      <point x="375" y="1591" type="line"/>
    </contour>
    <contour>
      <point x="468.5" y="1082" type="move" name="_top"/>
    </contour>
  </outline>
</glyph>
<glyph name="dotlessj" format="1">
  <advance width="653"/>
  <outline>
    <contour>
      <point x="42" y="-441" type="line"/>
      <point x="105" y="-419" type="line" smooth="yes"/>
      <point x="385" y="-321"/>
      <point x="449" y="-290"/>
      <point x="449" y="17" type="curve" smooth="yes"/>
      <point x="449" y="1082" type="line"/>
      <point x="229" y="1082" type="line"/>
      <point x="229" y="11" type="line" smooth="yes"/>
      <point x="229" y="-158"/>
      <point x="210" y="-190"/>
      <point x="53" y="-248" type="curve" smooth="yes"/>
      <point x="-25" y="-277" type="line"/>
    </contour>
    <contour>
      <point x="0" y="1082" type="move" name="top"/>
    </contour>
  </outline>
</glyph>
<glyph name="grave.cap" format="1">
  <advance width="937"/>
  <outline>
    <contour>
      <point x="612" y="1058" type="line"/>
      <point x="753" y="1058" type="line"/>
      <point x="568" y="1469" type="line"/>
      <point x="303" y="1469" type="line"/>
    </contour>
    <contour>
      <point x="680" y="970" type="move" name="_top"/>
    </contour>
  </outline>
</glyph>
<glyph name="onesuperior" format="1">
  <advance width="795"/>
  <outline>
    <contour>
      <point x="185" y="598" type="line"/>
      <point x="616" y="598" type="line"/>
      <point x="616" y="709" type="line"/>
      <point x="477" y="709" type="line"/>
      <point x="477" y="1479" type="line"/>
      <point x="367" y="1479" type="line"/>
      <point x="325" y="1439"/>
      <point x="211" y="1389"/>
      <point x="175" y="1376" type="curve"/>
      <point x="175" y="1262" type="line"/>
      <point x="209" y="1275"/>
      <point x="302" y="1312"/>
      <point x="339" y="1336" type="curve"/>
      <point x="339" y="709" type="line"/>
      <point x="185" y="709" type="line"/>
    </contour>
  </outline>
</glyph>
